<svg width="500" height="500" viewBox="0 0 500 500" fill="none" xmlns="http://www.w3.org/2000/svg">
<path d="M500 382.398H0V382.648H500V382.398Z" fill="#EBEBEB"/>
<path d="M449.901 398.494H416.779V398.744H449.901V398.494Z" fill="#EBEBEB"/>
<path d="M331.22 401.208H322.527V401.458H331.22V401.208Z" fill="#EBEBEB"/>
<path d="M415.778 389.208H396.586V389.458H415.778V389.208Z" fill="#EBEBEB"/>
<path d="M95.652 390.888H52.459V391.138H95.652V390.888Z" fill="#EBEBEB"/>
<path d="M110.889 390.888H104.556V391.138H110.889V390.888Z" fill="#EBEBEB"/>
<path d="M225.147 395.111H131.471V395.361H225.147V395.111Z" fill="#EBEBEB"/>
<path d="M237.014 337.8H43.915C40.768 337.8 38.207 335.239 38.207 332.092V60.6599C38.207 57.5129 40.768 54.9519 43.915 54.9519H237.014C240.16 54.9519 242.721 57.5129 242.721 60.6599V332.092C242.721 335.239 240.16 337.8 237.014 337.8ZM43.915 55.2029C40.905 55.2029 38.457 57.6509 38.457 60.6609V332.093C38.457 335.103 40.905 337.551 43.915 337.551H237.014C240.023 337.551 242.471 335.103 242.471 332.093V60.6599C242.471 57.6509 240.023 55.2019 237.014 55.2019L43.915 55.2029Z" fill="#EBEBEB"/>
<path d="M453.31 337.8H260.212C257.065 337.8 254.505 335.239 254.505 332.092V60.6599C254.505 57.5129 257.066 54.9519 260.212 54.9519H453.31C456.458 54.9519 459.018 57.5129 459.018 60.6599V332.092C459.019 335.239 456.458 337.8 453.31 337.8ZM260.212 55.2029C257.203 55.2029 254.755 57.6509 254.755 60.6609V332.093C254.755 335.103 257.203 337.551 260.212 337.551H453.31C456.32 337.551 458.768 335.103 458.768 332.093V60.6599C458.768 57.6509 456.32 55.2019 453.31 55.2019L260.212 55.2029Z" fill="#EBEBEB"/>
<path d="M437.882 381.744V334.923H433.879V312.615H428.027V235.049H419.567V225.04L401.504 216.616V206.524H399.002V235.049H395.499V312.615H391.996V271.83H382.488V250.812H379.835V312.615H372.613V289.095H367.859V283.09H356.85V262.572H350.821V248.06H343.41V226.917H340.765V248.06H333.354V262.572H327.325V283.09H316.315V289.095H311.561V312.615H305.923V283.09H294.913V219.535H291.41V212.529H267.89V219.535H262.886V265.575H242.869V270.078H235.363V273.582H242.869V291.597H221.851V231.546H217.347V218.785H207.589V173.496H204.837V218.785H197.831V231.546H156.758V227.345H154.255V255.87H150.752V256.37H148.648V284.894H145.145V292.651H137.741V271.633H135.088V321.676H132.134V300.658H129.481V333.436H127.867V309.916H123.113V303.911H112.103V283.393H106.074V268.881H98.6629V247.738H96.0179V268.881H88.6069V283.393H82.5779V303.911H71.5689V309.916H66.8149V332.935H65.9609V333.436H63.6069V381.744H437.882Z" fill="#E6E6E6"/>
<path d="M182.511 234.352H179.675V237.188H182.511V234.352Z" fill="#F0F0F0"/>
<path d="M182.511 239.106H179.675V241.942H182.511V239.106Z" fill="#F0F0F0"/>
<path d="M182.511 258.122H179.675V260.958H182.511V258.122Z" fill="#F0F0F0"/>
<path d="M182.511 262.876H179.675V265.712H182.511V262.876Z" fill="#F0F0F0"/>
<path d="M182.511 267.63H179.675V270.466H182.511V267.63Z" fill="#F0F0F0"/>
<path d="M182.511 281.892H179.675V284.728H182.511V281.892Z" fill="#F0F0F0"/>
<path d="M182.511 286.646H179.675V289.482H182.511V286.646Z" fill="#F0F0F0"/>
<path d="M187.014 253.368H184.178V256.204H187.014V253.368Z" fill="#F0F0F0"/>
<path d="M187.014 258.122H184.178V260.958H187.014V258.122Z" fill="#F0F0F0"/>
<path d="M187.014 262.876H184.178V265.712H187.014V262.876Z" fill="#F0F0F0"/>
<path d="M187.014 267.63H184.178V270.466H187.014V267.63Z" fill="#F0F0F0"/>
<path d="M187.014 272.384H184.178V275.22H187.014V272.384Z" fill="#F0F0F0"/>
<path d="M187.014 281.892H184.178V284.728H187.014V281.892Z" fill="#F0F0F0"/>
<path d="M187.014 286.646H184.178V289.482H187.014V286.646Z" fill="#F0F0F0"/>
<path d="M191.518 234.352H188.682V237.188H191.518V234.352Z" fill="#F0F0F0"/>
<path d="M191.518 239.106H188.682V241.942H191.518V239.106Z" fill="#F0F0F0"/>
<path d="M191.518 243.86H188.682V246.696H191.518V243.86Z" fill="#F0F0F0"/>
<path d="M191.518 248.614H188.682V251.45H191.518V248.614Z" fill="#F0F0F0"/>
<path d="M191.518 253.368H188.682V256.204H191.518V253.368Z" fill="#F0F0F0"/>
<path d="M191.518 258.122H188.682V260.958H191.518V258.122Z" fill="#F0F0F0"/>
<path d="M191.518 262.876H188.682V265.712H191.518V262.876Z" fill="#F0F0F0"/>
<path d="M191.518 267.63H188.682V270.466H191.518V267.63Z" fill="#F0F0F0"/>
<path d="M191.518 272.384H188.682V275.22H191.518V272.384Z" fill="#F0F0F0"/>
<path d="M191.518 277.138H188.682V279.974H191.518V277.138Z" fill="#F0F0F0"/>
<path d="M191.518 286.646H188.682V289.482H191.518V286.646Z" fill="#F0F0F0"/>
<path d="M196.022 234.352H193.186V237.188H196.022V234.352Z" fill="#F0F0F0"/>
<path d="M196.022 239.106H193.186V241.942H196.022V239.106Z" fill="#F0F0F0"/>
<path d="M196.022 243.86H193.186V246.696H196.022V243.86Z" fill="#F0F0F0"/>
<path d="M196.022 248.614H193.186V251.45H196.022V248.614Z" fill="#F0F0F0"/>
<path d="M196.022 253.368H193.186V256.204H196.022V253.368Z" fill="#F0F0F0"/>
<path d="M196.022 258.122H193.186V260.958H196.022V258.122Z" fill="#F0F0F0"/>
<path d="M196.022 262.876H193.186V265.712H196.022V262.876Z" fill="#F0F0F0"/>
<path d="M196.022 305.662H193.186V308.498H196.022V305.662Z" fill="#F0F0F0"/>
<path d="M200.526 234.352H197.69V237.188H200.526V234.352Z" fill="#F0F0F0"/>
<path d="M200.526 239.106H197.69V241.942H200.526V239.106Z" fill="#F0F0F0"/>
<path d="M200.526 243.86H197.69V246.696H200.526V243.86Z" fill="#F0F0F0"/>
<path d="M200.526 248.614H197.69V251.45H200.526V248.614Z" fill="#F0F0F0"/>
<path d="M200.526 253.368H197.69V256.204H200.526V253.368Z" fill="#F0F0F0"/>
<path d="M200.526 258.122H197.69V260.958H200.526V258.122Z" fill="#F0F0F0"/>
<path d="M200.526 262.876H197.69V265.712H200.526V262.876Z" fill="#F0F0F0"/>
<path d="M200.526 267.63H197.69V270.466H200.526V267.63Z" fill="#F0F0F0"/>
<path d="M200.526 296.154H197.69V298.99H200.526V296.154Z" fill="#F0F0F0"/>
<path d="M200.526 300.908H197.69V303.744H200.526V300.908Z" fill="#F0F0F0"/>
<path d="M200.526 305.662H197.69V308.498H200.526V305.662Z" fill="#F0F0F0"/>
<path d="M200.526 310.417H197.69V313.253H200.526V310.417Z" fill="#F0F0F0"/>
<path d="M200.526 329.433H197.69V332.269H200.526V329.433Z" fill="#F0F0F0"/>
<path d="M205.03 234.352H202.194V237.188H205.03V234.352Z" fill="#F0F0F0"/>
<path d="M205.03 239.106H202.194V241.942H205.03V239.106Z" fill="#F0F0F0"/>
<path d="M205.03 243.86H202.194V246.696H205.03V243.86Z" fill="#F0F0F0"/>
<path d="M205.03 248.614H202.194V251.45H205.03V248.614Z" fill="#F0F0F0"/>
<path d="M205.03 253.368H202.194V256.204H205.03V253.368Z" fill="#F0F0F0"/>
<path d="M205.03 258.122H202.194V260.958H205.03V258.122Z" fill="#F0F0F0"/>
<path d="M205.03 262.876H202.194V265.712H205.03V262.876Z" fill="#F0F0F0"/>
<path d="M205.03 267.63H202.194V270.466H205.03V267.63Z" fill="#F0F0F0"/>
<path d="M205.03 272.384H202.194V275.22H205.03V272.384Z" fill="#F0F0F0"/>
<path d="M205.03 277.138H202.194V279.974H205.03V277.138Z" fill="#F0F0F0"/>
<path d="M205.03 291.4H202.194V294.236H205.03V291.4Z" fill="#F0F0F0"/>
<path d="M205.03 296.154H202.194V298.99H205.03V296.154Z" fill="#F0F0F0"/>
<path d="M205.03 300.908H202.194V303.744H205.03V300.908Z" fill="#F0F0F0"/>
<path d="M205.03 305.662H202.194V308.498H205.03V305.662Z" fill="#F0F0F0"/>
<path d="M205.03 310.417H202.194V313.253H205.03V310.417Z" fill="#F0F0F0"/>
<path d="M205.03 329.433H202.194V332.269H205.03V329.433Z" fill="#F0F0F0"/>
<path d="M209.534 234.352H206.698V237.188H209.534V234.352Z" fill="#F0F0F0"/>
<path d="M209.534 239.106H206.698V241.942H209.534V239.106Z" fill="#F0F0F0"/>
<path d="M209.534 243.86H206.698V246.696H209.534V243.86Z" fill="#F0F0F0"/>
<path d="M209.534 248.614H206.698V251.45H209.534V248.614Z" fill="#F0F0F0"/>
<path d="M209.534 253.368H206.698V256.204H209.534V253.368Z" fill="#F0F0F0"/>
<path d="M209.534 258.122H206.698V260.958H209.534V258.122Z" fill="#F0F0F0"/>
<path d="M209.534 262.876H206.698V265.712H209.534V262.876Z" fill="#F0F0F0"/>
<path d="M209.534 267.63H206.698V270.466H209.534V267.63Z" fill="#F0F0F0"/>
<path d="M209.534 272.384H206.698V275.22H209.534V272.384Z" fill="#F0F0F0"/>
<path d="M209.534 277.138H206.698V279.974H209.534V277.138Z" fill="#F0F0F0"/>
<path d="M209.534 281.892H206.698V284.728H209.534V281.892Z" fill="#F0F0F0"/>
<path d="M209.534 286.646H206.698V289.482H209.534V286.646Z" fill="#F0F0F0"/>
<path d="M209.534 291.4H206.698V294.236H209.534V291.4Z" fill="#F0F0F0"/>
<path d="M209.534 296.154H206.698V298.99H209.534V296.154Z" fill="#F0F0F0"/>
<path d="M209.534 300.908H206.698V303.744H209.534V300.908Z" fill="#F0F0F0"/>
<path d="M209.534 305.662H206.698V308.498H209.534V305.662Z" fill="#F0F0F0"/>
<path d="M209.534 310.417H206.698V313.253H209.534V310.417Z" fill="#F0F0F0"/>
<path d="M209.534 315.171H206.698V318.007H209.534V315.171Z" fill="#F0F0F0"/>
<path d="M214.038 234.352H211.202V237.188H214.038V234.352Z" fill="#F0F0F0"/>
<path d="M214.038 239.106H211.202V241.942H214.038V239.106Z" fill="#F0F0F0"/>
<path d="M214.038 243.86H211.202V246.696H214.038V243.86Z" fill="#F0F0F0"/>
<path d="M214.038 248.614H211.202V251.45H214.038V248.614Z" fill="#F0F0F0"/>
<path d="M214.038 253.368H211.202V256.204H214.038V253.368Z" fill="#F0F0F0"/>
<path d="M214.038 258.122H211.202V260.958H214.038V258.122Z" fill="#F0F0F0"/>
<path d="M214.038 262.876H211.202V265.712H214.038V262.876Z" fill="#F0F0F0"/>
<path d="M214.038 267.63H211.202V270.466H214.038V267.63Z" fill="#F0F0F0"/>
<path d="M214.038 272.384H211.202V275.22H214.038V272.384Z" fill="#F0F0F0"/>
<path d="M214.038 277.138H211.202V279.974H214.038V277.138Z" fill="#F0F0F0"/>
<path d="M214.038 291.4H211.202V294.236H214.038V291.4Z" fill="#F0F0F0"/>
<path d="M214.038 296.154H211.202V298.99H214.038V296.154Z" fill="#F0F0F0"/>
<path d="M214.038 300.908H211.202V303.744H214.038V300.908Z" fill="#F0F0F0"/>
<path d="M214.038 305.662H211.202V308.498H214.038V305.662Z" fill="#F0F0F0"/>
<path d="M218.541 234.352H215.705V237.188H218.541V234.352Z" fill="#F0F0F0"/>
<path d="M218.541 239.106H215.705V241.942H218.541V239.106Z" fill="#F0F0F0"/>
<path d="M218.541 243.86H215.705V246.696H218.541V243.86Z" fill="#F0F0F0"/>
<path d="M218.541 248.614H215.705V251.45H218.541V248.614Z" fill="#F0F0F0"/>
<path d="M218.541 253.368H215.705V256.204H218.541V253.368Z" fill="#F0F0F0"/>
<path d="M218.541 258.122H215.705V260.958H218.541V258.122Z" fill="#F0F0F0"/>
<path d="M218.541 262.876H215.705V265.712H218.541V262.876Z" fill="#F0F0F0"/>
<path d="M218.541 267.63H215.705V270.466H218.541V267.63Z" fill="#F0F0F0"/>
<path d="M218.541 272.384H215.705V275.22H218.541V272.384Z" fill="#F0F0F0"/>
<path d="M218.541 277.138H215.705V279.974H218.541V277.138Z" fill="#F0F0F0"/>
<path d="M218.541 291.4H215.705V294.236H218.541V291.4Z" fill="#F0F0F0"/>
<path d="M218.541 296.154H215.705V298.99H218.541V296.154Z" fill="#F0F0F0"/>
<path d="M218.541 300.908H215.705V303.744H218.541V300.908Z" fill="#F0F0F0"/>
<path d="M269.251 222.008H266.415V224.844H269.251V222.008Z" fill="#F0F0F0"/>
<path d="M269.251 226.762H266.415V229.598H269.251V226.762Z" fill="#F0F0F0"/>
<path d="M269.251 231.516H266.415V234.352H269.251V231.516Z" fill="#F0F0F0"/>
<path d="M269.251 236.27H266.415V239.106H269.251V236.27Z" fill="#F0F0F0"/>
<path d="M269.251 241.024H266.415V243.86H269.251V241.024Z" fill="#F0F0F0"/>
<path d="M269.251 245.778H266.415V248.614H269.251V245.778Z" fill="#F0F0F0"/>
<path d="M269.251 250.532H266.415V253.368H269.251V250.532Z" fill="#F0F0F0"/>
<path d="M269.251 255.286H266.415V258.122H269.251V255.286Z" fill="#F0F0F0"/>
<path d="M269.251 269.548H266.415V272.384H269.251V269.548Z" fill="#F0F0F0"/>
<path d="M269.251 274.302H266.415V277.138H269.251V274.302Z" fill="#F0F0F0"/>
<path d="M273.755 222.008H270.919V224.844H273.755V222.008Z" fill="#F0F0F0"/>
<path d="M273.755 226.762H270.919V229.598H273.755V226.762Z" fill="#F0F0F0"/>
<path d="M273.755 231.516H270.919V234.352H273.755V231.516Z" fill="#F0F0F0"/>
<path d="M273.755 236.27H270.919V239.106H273.755V236.27Z" fill="#F0F0F0"/>
<path d="M273.755 241.024H270.919V243.86H273.755V241.024Z" fill="#F0F0F0"/>
<path d="M273.755 245.778H270.919V248.614H273.755V245.778Z" fill="#F0F0F0"/>
<path d="M273.755 250.532H270.919V253.368H273.755V250.532Z" fill="#F0F0F0"/>
<path d="M273.755 255.286H270.919V258.122H273.755V255.286Z" fill="#F0F0F0"/>
<path d="M273.755 274.302H270.919V277.138H273.755V274.302Z" fill="#F0F0F0"/>
<path d="M278.259 222.008H275.423V224.844H278.259V222.008Z" fill="#F0F0F0"/>
<path d="M278.259 226.762H275.423V229.598H278.259V226.762Z" fill="#F0F0F0"/>
<path d="M278.259 231.516H275.423V234.352H278.259V231.516Z" fill="#F0F0F0"/>
<path d="M278.259 236.27H275.423V239.106H278.259V236.27Z" fill="#F0F0F0"/>
<path d="M278.259 241.024H275.423V243.86H278.259V241.024Z" fill="#F0F0F0"/>
<path d="M278.259 245.778H275.423V248.614H278.259V245.778Z" fill="#F0F0F0"/>
<path d="M278.259 250.532H275.423V253.368H278.259V250.532Z" fill="#F0F0F0"/>
<path d="M278.259 255.286H275.423V258.122H278.259V255.286Z" fill="#F0F0F0"/>
<path d="M282.763 222.008H279.927V224.844H282.763V222.008Z" fill="#F0F0F0"/>
<path d="M282.763 226.762H279.927V229.598H282.763V226.762Z" fill="#F0F0F0"/>
<path d="M282.763 231.516H279.927V234.352H282.763V231.516Z" fill="#F0F0F0"/>
<path d="M282.763 236.27H279.927V239.106H282.763V236.27Z" fill="#F0F0F0"/>
<path d="M282.763 241.024H279.927V243.86H282.763V241.024Z" fill="#F0F0F0"/>
<path d="M282.763 245.778H279.927V248.614H282.763V245.778Z" fill="#F0F0F0"/>
<path d="M282.763 255.286H279.927V258.122H282.763V255.286Z" fill="#F0F0F0"/>
<path d="M282.763 260.04H279.927V262.876H282.763V260.04Z" fill="#F0F0F0"/>
<path d="M282.763 274.302H279.927V277.138H282.763V274.302Z" fill="#F0F0F0"/>
<path d="M282.763 279.056H279.927V281.892H282.763V279.056Z" fill="#F0F0F0"/>
<path d="M282.763 283.811H279.927V286.647H282.763V283.811Z" fill="#F0F0F0"/>
<path d="M282.763 288.565H279.927V291.401H282.763V288.565Z" fill="#F0F0F0"/>
<path d="M282.763 293.319H279.927V296.155H282.763V293.319Z" fill="#F0F0F0"/>
<path d="M282.763 298.073H279.927V300.909H282.763V298.073Z" fill="#F0F0F0"/>
<path d="M282.763 302.827H279.927V305.663H282.763V302.827Z" fill="#F0F0F0"/>
<path d="M287.267 222.008H284.431V224.844H287.267V222.008Z" fill="#F0F0F0"/>
<path d="M287.267 226.762H284.431V229.598H287.267V226.762Z" fill="#F0F0F0"/>
<path d="M287.267 231.516H284.431V234.352H287.267V231.516Z" fill="#F0F0F0"/>
<path d="M287.267 236.27H284.431V239.106H287.267V236.27Z" fill="#F0F0F0"/>
<path d="M287.267 241.024H284.431V243.86H287.267V241.024Z" fill="#F0F0F0"/>
<path d="M287.267 245.778H284.431V248.614H287.267V245.778Z" fill="#F0F0F0"/>
<path d="M287.267 260.04H284.431V262.876H287.267V260.04Z" fill="#F0F0F0"/>
<path d="M287.267 264.794H284.431V267.63H287.267V264.794Z" fill="#F0F0F0"/>
<path d="M287.267 269.548H284.431V272.384H287.267V269.548Z" fill="#F0F0F0"/>
<path d="M287.267 274.302H284.431V277.138H287.267V274.302Z" fill="#F0F0F0"/>
<path d="M287.267 279.056H284.431V281.892H287.267V279.056Z" fill="#F0F0F0"/>
<path d="M287.267 283.811H284.431V286.647H287.267V283.811Z" fill="#F0F0F0"/>
<path d="M287.267 288.565H284.431V291.401H287.267V288.565Z" fill="#F0F0F0"/>
<path d="M287.267 293.319H284.431V296.155H287.267V293.319Z" fill="#F0F0F0"/>
<path d="M287.267 298.073H284.431V300.909H287.267V298.073Z" fill="#F0F0F0"/>
<path d="M287.267 302.827H284.431V305.663H287.267V302.827Z" fill="#F0F0F0"/>
<path d="M287.267 307.581H284.431V310.417H287.267V307.581Z" fill="#F0F0F0"/>
<path d="M287.267 317.089H284.431V319.925H287.267V317.089Z" fill="#F0F0F0"/>
<path d="M291.77 222.008H288.934V224.844H291.77V222.008Z" fill="#F0F0F0"/>
<path d="M291.77 226.762H288.934V229.598H291.77V226.762Z" fill="#F0F0F0"/>
<path d="M291.77 231.516H288.934V234.352H291.77V231.516Z" fill="#F0F0F0"/>
<path d="M291.77 236.27H288.934V239.106H291.77V236.27Z" fill="#F0F0F0"/>
<path d="M291.77 241.024H288.934V243.86H291.77V241.024Z" fill="#F0F0F0"/>
<path d="M291.77 245.778H288.934V248.614H291.77V245.778Z" fill="#F0F0F0"/>
<path d="M291.77 260.04H288.934V262.876H291.77V260.04Z" fill="#F0F0F0"/>
<path d="M291.77 264.794H288.934V267.63H291.77V264.794Z" fill="#F0F0F0"/>
<path d="M291.77 269.548H288.934V272.384H291.77V269.548Z" fill="#F0F0F0"/>
<path d="M291.77 274.302H288.934V277.138H291.77V274.302Z" fill="#F0F0F0"/>
<path d="M291.77 288.565H288.934V291.401H291.77V288.565Z" fill="#F0F0F0"/>
<path d="M291.77 293.319H288.934V296.155H291.77V293.319Z" fill="#F0F0F0"/>
<path d="M291.77 298.073H288.934V300.909H291.77V298.073Z" fill="#F0F0F0"/>
<path d="M291.77 302.827H288.934V305.663H291.77V302.827Z" fill="#F0F0F0"/>
<path d="M291.77 307.581H288.934V310.417H291.77V307.581Z" fill="#F0F0F0"/>
<path d="M291.77 317.089H288.934V319.925H291.77V317.089Z" fill="#F0F0F0"/>
<path d="M291.77 321.843H288.934V324.679H291.77V321.843Z" fill="#F0F0F0"/>
<path d="M332.639 266.212H329.803V269.048H332.639V266.212Z" fill="#F0F0F0"/>
<path d="M332.639 270.966H329.803V273.802H332.639V270.966Z" fill="#F0F0F0"/>
<path d="M332.639 275.72H329.803V278.556H332.639V275.72Z" fill="#F0F0F0"/>
<path d="M332.639 280.474H329.803V283.31H332.639V280.474Z" fill="#F0F0F0"/>
<path d="M332.639 285.228H329.803V288.064H332.639V285.228Z" fill="#F0F0F0"/>
<path d="M332.639 289.983H329.803V292.819H332.639V289.983Z" fill="#F0F0F0"/>
<path d="M332.639 294.737H329.803V297.573H332.639V294.737Z" fill="#F0F0F0"/>
<path d="M332.639 308.999H329.803V311.835H332.639V308.999Z" fill="#F0F0F0"/>
<path d="M332.639 313.753H329.803V316.589H332.639V313.753Z" fill="#F0F0F0"/>
<path d="M332.639 318.507H329.803V321.343H332.639V318.507Z" fill="#F0F0F0"/>
<path d="M337.142 266.212H334.306V269.048H337.142V266.212Z" fill="#F0F0F0"/>
<path d="M337.142 270.966H334.306V273.802H337.142V270.966Z" fill="#F0F0F0"/>
<path d="M337.142 275.72H334.306V278.556H337.142V275.72Z" fill="#F0F0F0"/>
<path d="M337.142 280.474H334.306V283.31H337.142V280.474Z" fill="#F0F0F0"/>
<path d="M337.142 285.228H334.306V288.064H337.142V285.228Z" fill="#F0F0F0"/>
<path d="M337.142 289.983H334.306V292.819H337.142V289.983Z" fill="#F0F0F0"/>
<path d="M337.142 294.737H334.306V297.573H337.142V294.737Z" fill="#F0F0F0"/>
<path d="M341.646 266.212H338.81V269.048H341.646V266.212Z" fill="#F0F0F0"/>
<path d="M341.646 270.966H338.81V273.802H341.646V270.966Z" fill="#F0F0F0"/>
<path d="M341.646 275.72H338.81V278.556H341.646V275.72Z" fill="#F0F0F0"/>
<path d="M341.646 280.474H338.81V283.31H341.646V280.474Z" fill="#F0F0F0"/>
<path d="M341.646 285.228H338.81V288.064H341.646V285.228Z" fill="#F0F0F0"/>
<path d="M341.646 289.983H338.81V292.819H341.646V289.983Z" fill="#F0F0F0"/>
<path d="M341.646 294.737H338.81V297.573H341.646V294.737Z" fill="#F0F0F0"/>
<path d="M346.15 266.212H343.314V269.048H346.15V266.212Z" fill="#F0F0F0"/>
<path d="M346.15 270.966H343.314V273.802H346.15V270.966Z" fill="#F0F0F0"/>
<path d="M346.15 275.72H343.314V278.556H346.15V275.72Z" fill="#F0F0F0"/>
<path d="M346.15 280.474H343.314V283.31H346.15V280.474Z" fill="#F0F0F0"/>
<path d="M346.15 285.228H343.314V288.064H346.15V285.228Z" fill="#F0F0F0"/>
<path d="M346.15 289.983H343.314V292.819H346.15V289.983Z" fill="#F0F0F0"/>
<path d="M346.15 294.737H343.314V297.573H346.15V294.737Z" fill="#F0F0F0"/>
<path d="M346.15 299.491H343.314V302.327H346.15V299.491Z" fill="#F0F0F0"/>
<path d="M346.15 304.245H343.314V307.081H346.15V304.245Z" fill="#F0F0F0"/>
<path d="M346.15 308.999H343.314V311.835H346.15V308.999Z" fill="#F0F0F0"/>
<path d="M346.15 313.753H343.314V316.589H346.15V313.753Z" fill="#F0F0F0"/>
<path d="M350.654 266.212H347.818V269.048H350.654V266.212Z" fill="#F0F0F0"/>
<path d="M350.654 270.966H347.818V273.802H350.654V270.966Z" fill="#F0F0F0"/>
<path d="M350.654 275.72H347.818V278.556H350.654V275.72Z" fill="#F0F0F0"/>
<path d="M350.654 280.474H347.818V283.31H350.654V280.474Z" fill="#F0F0F0"/>
<path d="M350.654 285.228H347.818V288.064H350.654V285.228Z" fill="#F0F0F0"/>
<path d="M350.654 289.983H347.818V292.819H350.654V289.983Z" fill="#F0F0F0"/>
<path d="M350.654 294.737H347.818V297.573H350.654V294.737Z" fill="#F0F0F0"/>
<path d="M350.654 299.491H347.818V302.327H350.654V299.491Z" fill="#F0F0F0"/>
<path d="M350.654 304.245H347.818V307.081H350.654V304.245Z" fill="#F0F0F0"/>
<path d="M350.654 308.999H347.818V311.835H350.654V308.999Z" fill="#F0F0F0"/>
<path d="M350.654 313.753H347.818V316.589H350.654V313.753Z" fill="#F0F0F0"/>
<path d="M350.654 318.507H347.818V321.343H350.654V318.507Z" fill="#F0F0F0"/>
<path d="M350.654 332.769H347.818V335.605H350.654V332.769Z" fill="#F0F0F0"/>
<path d="M350.654 337.523H347.818V340.359H350.654V337.523Z" fill="#F0F0F0"/>
<path d="M355.158 266.212H352.322V269.048H355.158V266.212Z" fill="#F0F0F0"/>
<path d="M355.158 270.966H352.322V273.802H355.158V270.966Z" fill="#F0F0F0"/>
<path d="M355.158 275.72H352.322V278.556H355.158V275.72Z" fill="#F0F0F0"/>
<path d="M355.158 289.983H352.322V292.819H355.158V289.983Z" fill="#F0F0F0"/>
<path d="M355.158 294.737H352.322V297.573H355.158V294.737Z" fill="#F0F0F0"/>
<path d="M355.158 299.491H352.322V302.327H355.158V299.491Z" fill="#F0F0F0"/>
<path d="M355.158 304.245H352.322V307.081H355.158V304.245Z" fill="#F0F0F0"/>
<path d="M355.158 308.999H352.322V311.835H355.158V308.999Z" fill="#F0F0F0"/>
<path d="M355.158 313.753H352.322V316.589H355.158V313.753Z" fill="#F0F0F0"/>
<path d="M355.158 318.507H352.322V321.343H355.158V318.507Z" fill="#F0F0F0"/>
<path d="M355.158 332.769H352.322V335.605H355.158V332.769Z" fill="#F0F0F0"/>
<path d="M355.158 337.523H352.322V340.359H355.158V337.523Z" fill="#F0F0F0"/>
<path d="M355.158 342.277H352.322V345.113H355.158V342.277Z" fill="#F0F0F0"/>
<path d="M402.365 237.688H399.529V240.524H402.365V237.688Z" fill="#F0F0F0"/>
<path d="M402.365 242.442H399.529V245.278H402.365V242.442Z" fill="#F0F0F0"/>
<path d="M402.365 247.196H399.529V250.032H402.365V247.196Z" fill="#F0F0F0"/>
<path d="M402.365 251.95H399.529V254.786H402.365V251.95Z" fill="#F0F0F0"/>
<path d="M402.365 256.704H399.529V259.54H402.365V256.704Z" fill="#F0F0F0"/>
<path d="M402.365 261.458H399.529V264.294H402.365V261.458Z" fill="#F0F0F0"/>
<path d="M402.365 266.212H399.529V269.048H402.365V266.212Z" fill="#F0F0F0"/>
<path d="M402.365 270.966H399.529V273.802H402.365V270.966Z" fill="#F0F0F0"/>
<path d="M402.365 275.72H399.529V278.556H402.365V275.72Z" fill="#F0F0F0"/>
<path d="M402.365 280.474H399.529V283.31H402.365V280.474Z" fill="#F0F0F0"/>
<path d="M402.365 285.228H399.529V288.064H402.365V285.228Z" fill="#F0F0F0"/>
<path d="M402.365 289.983H399.529V292.819H402.365V289.983Z" fill="#F0F0F0"/>
<path d="M402.365 294.737H399.529V297.573H402.365V294.737Z" fill="#F0F0F0"/>
<path d="M402.365 299.491H399.529V302.327H402.365V299.491Z" fill="#F0F0F0"/>
<path d="M402.365 304.245H399.529V307.081H402.365V304.245Z" fill="#F0F0F0"/>
<path d="M402.365 308.999H399.529V311.835H402.365V308.999Z" fill="#F0F0F0"/>
<path d="M402.365 313.753H399.529V316.589H402.365V313.753Z" fill="#F0F0F0"/>
<path d="M402.365 318.507H399.529V321.343H402.365V318.507Z" fill="#F0F0F0"/>
<path d="M402.365 323.261H399.529V326.097H402.365V323.261Z" fill="#F0F0F0"/>
<path d="M402.365 328.015H399.529V330.851H402.365V328.015Z" fill="#F0F0F0"/>
<path d="M402.365 332.769H399.529V335.605H402.365V332.769Z" fill="#F0F0F0"/>
<path d="M402.365 337.523H399.529V340.359H402.365V337.523Z" fill="#F0F0F0"/>
<path d="M402.365 342.277H399.529V345.113H402.365V342.277Z" fill="#F0F0F0"/>
<path d="M406.869 237.688H404.033V240.524H406.869V237.688Z" fill="#F0F0F0"/>
<path d="M406.869 242.442H404.033V245.278H406.869V242.442Z" fill="#F0F0F0"/>
<path d="M406.869 247.196H404.033V250.032H406.869V247.196Z" fill="#F0F0F0"/>
<path d="M406.869 251.95H404.033V254.786H406.869V251.95Z" fill="#F0F0F0"/>
<path d="M406.869 256.704H404.033V259.54H406.869V256.704Z" fill="#F0F0F0"/>
<path d="M406.869 261.458H404.033V264.294H406.869V261.458Z" fill="#F0F0F0"/>
<path d="M406.869 266.212H404.033V269.048H406.869V266.212Z" fill="#F0F0F0"/>
<path d="M406.869 270.966H404.033V273.802H406.869V270.966Z" fill="#F0F0F0"/>
<path d="M406.869 275.72H404.033V278.556H406.869V275.72Z" fill="#F0F0F0"/>
<path d="M406.869 280.474H404.033V283.31H406.869V280.474Z" fill="#F0F0F0"/>
<path d="M406.869 285.228H404.033V288.064H406.869V285.228Z" fill="#F0F0F0"/>
<path d="M406.869 289.983H404.033V292.819H406.869V289.983Z" fill="#F0F0F0"/>
<path d="M406.869 294.737H404.033V297.573H406.869V294.737Z" fill="#F0F0F0"/>
<path d="M406.869 299.491H404.033V302.327H406.869V299.491Z" fill="#F0F0F0"/>
<path d="M406.869 304.245H404.033V307.081H406.869V304.245Z" fill="#F0F0F0"/>
<path d="M406.869 308.999H404.033V311.835H406.869V308.999Z" fill="#F0F0F0"/>
<path d="M406.869 313.753H404.033V316.589H406.869V313.753Z" fill="#F0F0F0"/>
<path d="M406.869 318.507H404.033V321.343H406.869V318.507Z" fill="#F0F0F0"/>
<path d="M406.869 323.261H404.033V326.097H406.869V323.261Z" fill="#F0F0F0"/>
<path d="M411.372 237.688H408.536V240.524H411.372V237.688Z" fill="#F0F0F0"/>
<path d="M411.372 242.442H408.536V245.278H411.372V242.442Z" fill="#F0F0F0"/>
<path d="M411.372 247.196H408.536V250.032H411.372V247.196Z" fill="#F0F0F0"/>
<path d="M411.372 251.95H408.536V254.786H411.372V251.95Z" fill="#F0F0F0"/>
<path d="M411.372 256.704H408.536V259.54H411.372V256.704Z" fill="#F0F0F0"/>
<path d="M411.372 261.458H408.536V264.294H411.372V261.458Z" fill="#F0F0F0"/>
<path d="M411.372 266.212H408.536V269.048H411.372V266.212Z" fill="#F0F0F0"/>
<path d="M411.372 270.966H408.536V273.802H411.372V270.966Z" fill="#F0F0F0"/>
<path d="M411.372 275.72H408.536V278.556H411.372V275.72Z" fill="#F0F0F0"/>
<path d="M411.372 280.474H408.536V283.31H411.372V280.474Z" fill="#F0F0F0"/>
<path d="M411.372 285.228H408.536V288.064H411.372V285.228Z" fill="#F0F0F0"/>
<path d="M411.372 289.983H408.536V292.819H411.372V289.983Z" fill="#F0F0F0"/>
<path d="M411.372 294.737H408.536V297.573H411.372V294.737Z" fill="#F0F0F0"/>
<path d="M411.372 299.491H408.536V302.327H411.372V299.491Z" fill="#F0F0F0"/>
<path d="M411.372 304.245H408.536V307.081H411.372V304.245Z" fill="#F0F0F0"/>
<path d="M411.372 308.999H408.536V311.835H411.372V308.999Z" fill="#F0F0F0"/>
<path d="M411.372 313.753H408.536V316.589H411.372V313.753Z" fill="#F0F0F0"/>
<path d="M411.372 318.507H408.536V321.343H411.372V318.507Z" fill="#F0F0F0"/>
<path d="M411.372 323.261H408.536V326.097H411.372V323.261Z" fill="#F0F0F0"/>
<path d="M415.876 237.688H413.04V240.524H415.876V237.688Z" fill="#F0F0F0"/>
<path d="M415.876 242.442H413.04V245.278H415.876V242.442Z" fill="#F0F0F0"/>
<path d="M415.876 247.196H413.04V250.032H415.876V247.196Z" fill="#F0F0F0"/>
<path d="M415.876 251.95H413.04V254.786H415.876V251.95Z" fill="#F0F0F0"/>
<path d="M415.876 256.704H413.04V259.54H415.876V256.704Z" fill="#F0F0F0"/>
<path d="M415.876 261.458H413.04V264.294H415.876V261.458Z" fill="#F0F0F0"/>
<path d="M415.876 266.212H413.04V269.048H415.876V266.212Z" fill="#F0F0F0"/>
<path d="M415.876 270.966H413.04V273.802H415.876V270.966Z" fill="#F0F0F0"/>
<path d="M415.876 275.72H413.04V278.556H415.876V275.72Z" fill="#F0F0F0"/>
<path d="M415.876 280.474H413.04V283.31H415.876V280.474Z" fill="#F0F0F0"/>
<path d="M415.876 285.228H413.04V288.064H415.876V285.228Z" fill="#F0F0F0"/>
<path d="M415.876 289.983H413.04V292.819H415.876V289.983Z" fill="#F0F0F0"/>
<path d="M415.876 294.737H413.04V297.573H415.876V294.737Z" fill="#F0F0F0"/>
<path d="M415.876 299.491H413.04V302.327H415.876V299.491Z" fill="#F0F0F0"/>
<path d="M415.876 304.245H413.04V307.081H415.876V304.245Z" fill="#F0F0F0"/>
<path d="M420.38 237.688H417.544V240.524H420.38V237.688Z" fill="#F0F0F0"/>
<path d="M420.38 242.442H417.544V245.278H420.38V242.442Z" fill="#F0F0F0"/>
<path d="M420.38 247.196H417.544V250.032H420.38V247.196Z" fill="#F0F0F0"/>
<path d="M420.38 251.95H417.544V254.786H420.38V251.95Z" fill="#F0F0F0"/>
<path d="M420.38 256.704H417.544V259.54H420.38V256.704Z" fill="#F0F0F0"/>
<path d="M420.38 261.458H417.544V264.294H420.38V261.458Z" fill="#F0F0F0"/>
<path d="M420.38 266.212H417.544V269.048H420.38V266.212Z" fill="#F0F0F0"/>
<path d="M420.38 270.966H417.544V273.802H420.38V270.966Z" fill="#F0F0F0"/>
<path d="M420.38 275.72H417.544V278.556H420.38V275.72Z" fill="#F0F0F0"/>
<path d="M420.38 280.474H417.544V283.31H420.38V280.474Z" fill="#F0F0F0"/>
<path d="M420.38 285.228H417.544V288.064H420.38V285.228Z" fill="#F0F0F0"/>
<path d="M420.38 289.983H417.544V292.819H420.38V289.983Z" fill="#F0F0F0"/>
<path d="M420.38 294.737H417.544V297.573H420.38V294.737Z" fill="#F0F0F0"/>
<path d="M424.884 237.688H422.048V240.524H424.884V237.688Z" fill="#F0F0F0"/>
<path d="M424.884 242.442H422.048V245.278H424.884V242.442Z" fill="#F0F0F0"/>
<path d="M424.884 247.196H422.048V250.032H424.884V247.196Z" fill="#F0F0F0"/>
<path d="M424.884 251.95H422.048V254.786H424.884V251.95Z" fill="#F0F0F0"/>
<path d="M424.884 256.704H422.048V259.54H424.884V256.704Z" fill="#F0F0F0"/>
<path d="M424.884 261.458H422.048V264.294H424.884V261.458Z" fill="#F0F0F0"/>
<path d="M424.884 266.212H422.048V269.048H424.884V266.212Z" fill="#F0F0F0"/>
<path d="M424.884 270.966H422.048V273.802H424.884V270.966Z" fill="#F0F0F0"/>
<path d="M424.884 275.72H422.048V278.556H424.884V275.72Z" fill="#F0F0F0"/>
<path d="M424.884 280.474H422.048V283.31H424.884V280.474Z" fill="#F0F0F0"/>
<path d="M424.884 285.228H422.048V288.064H424.884V285.228Z" fill="#F0F0F0"/>
<path d="M424.884 289.983H422.048V292.819H424.884V289.983Z" fill="#F0F0F0"/>
<path d="M93.9351 272.384H91.0991V275.22H93.9351V272.384Z" fill="#F0F0F0"/>
<path d="M93.9351 277.138H91.0991V279.974H93.9351V277.138Z" fill="#F0F0F0"/>
<path d="M93.9351 281.892H91.0991V284.728H93.9351V281.892Z" fill="#F0F0F0"/>
<path d="M93.9351 286.646H91.0991V289.482H93.9351V286.646Z" fill="#F0F0F0"/>
<path d="M93.9351 291.4H91.0991V294.236H93.9351V291.4Z" fill="#F0F0F0"/>
<path d="M93.9351 296.154H91.0991V298.99H93.9351V296.154Z" fill="#F0F0F0"/>
<path d="M93.9351 300.908H91.0991V303.744H93.9351V300.908Z" fill="#F0F0F0"/>
<path d="M93.9351 305.662H91.0991V308.498H93.9351V305.662Z" fill="#F0F0F0"/>
<path d="M93.9351 310.417H91.0991V313.253H93.9351V310.417Z" fill="#F0F0F0"/>
<path d="M93.9351 315.171H91.0991V318.007H93.9351V315.171Z" fill="#F0F0F0"/>
<path d="M93.9351 319.925H91.0991V322.761H93.9351V319.925Z" fill="#F0F0F0"/>
<path d="M93.9351 324.679H91.0991V327.515H93.9351V324.679Z" fill="#F0F0F0"/>
<path d="M93.9351 329.433H91.0991V332.269H93.9351V329.433Z" fill="#F0F0F0"/>
<path d="M93.9351 334.187H91.0991V337.023H93.9351V334.187Z" fill="#F0F0F0"/>
<path d="M93.9351 338.941H91.0991V341.777H93.9351V338.941Z" fill="#F0F0F0"/>
<path d="M93.9351 343.695H91.0991V346.531H93.9351V343.695Z" fill="#F0F0F0"/>
<path d="M93.9351 348.449H91.0991V351.285H93.9351V348.449Z" fill="#F0F0F0"/>
<path d="M93.9351 353.203H91.0991V356.039H93.9351V353.203Z" fill="#F0F0F0"/>
<path d="M93.9351 357.957H91.0991V360.793H93.9351V357.957Z" fill="#F0F0F0"/>
<path d="M93.9351 362.711H91.0991V365.547H93.9351V362.711Z" fill="#F0F0F0"/>
<path d="M98.439 272.384H95.603V275.22H98.439V272.384Z" fill="#F0F0F0"/>
<path d="M98.439 277.138H95.603V279.974H98.439V277.138Z" fill="#F0F0F0"/>
<path d="M98.439 281.892H95.603V284.728H98.439V281.892Z" fill="#F0F0F0"/>
<path d="M98.439 286.646H95.603V289.482H98.439V286.646Z" fill="#F0F0F0"/>
<path d="M98.439 291.4H95.603V294.236H98.439V291.4Z" fill="#F0F0F0"/>
<path d="M98.439 296.154H95.603V298.99H98.439V296.154Z" fill="#F0F0F0"/>
<path d="M98.439 300.908H95.603V303.744H98.439V300.908Z" fill="#F0F0F0"/>
<path d="M98.439 305.662H95.603V308.498H98.439V305.662Z" fill="#F0F0F0"/>
<path d="M98.439 310.417H95.603V313.253H98.439V310.417Z" fill="#F0F0F0"/>
<path d="M98.439 315.171H95.603V318.007H98.439V315.171Z" fill="#F0F0F0"/>
<path d="M98.439 319.925H95.603V322.761H98.439V319.925Z" fill="#F0F0F0"/>
<path d="M98.439 324.679H95.603V327.515H98.439V324.679Z" fill="#F0F0F0"/>
<path d="M98.439 329.433H95.603V332.269H98.439V329.433Z" fill="#F0F0F0"/>
<path d="M98.439 334.187H95.603V337.023H98.439V334.187Z" fill="#F0F0F0"/>
<path d="M98.439 338.941H95.603V341.777H98.439V338.941Z" fill="#F0F0F0"/>
<path d="M98.439 343.695H95.603V346.531H98.439V343.695Z" fill="#F0F0F0"/>
<path d="M98.439 348.449H95.603V351.285H98.439V348.449Z" fill="#F0F0F0"/>
<path d="M98.439 353.203H95.603V356.039H98.439V353.203Z" fill="#F0F0F0"/>
<path d="M102.943 272.384H100.107V275.22H102.943V272.384Z" fill="#F0F0F0"/>
<path d="M102.943 277.138H100.107V279.974H102.943V277.138Z" fill="#F0F0F0"/>
<path d="M102.943 281.892H100.107V284.728H102.943V281.892Z" fill="#F0F0F0"/>
<path d="M102.943 286.646H100.107V289.482H102.943V286.646Z" fill="#F0F0F0"/>
<path d="M102.943 291.4H100.107V294.236H102.943V291.4Z" fill="#F0F0F0"/>
<path d="M102.943 296.154H100.107V298.99H102.943V296.154Z" fill="#F0F0F0"/>
<path d="M102.943 300.908H100.107V303.744H102.943V300.908Z" fill="#F0F0F0"/>
<path d="M102.943 305.662H100.107V308.498H102.943V305.662Z" fill="#F0F0F0"/>
<path d="M102.943 310.417H100.107V313.253H102.943V310.417Z" fill="#F0F0F0"/>
<path d="M102.943 315.171H100.107V318.007H102.943V315.171Z" fill="#F0F0F0"/>
<path d="M102.943 319.925H100.107V322.761H102.943V319.925Z" fill="#F0F0F0"/>
<path d="M102.943 324.679H100.107V327.515H102.943V324.679Z" fill="#F0F0F0"/>
<path d="M102.943 329.433H100.107V332.269H102.943V329.433Z" fill="#F0F0F0"/>
<path d="M102.943 334.187H100.107V337.023H102.943V334.187Z" fill="#F0F0F0"/>
<path d="M102.943 338.941H100.107V341.777H102.943V338.941Z" fill="#F0F0F0"/>
<path d="M102.943 343.695H100.107V346.531H102.943V343.695Z" fill="#F0F0F0"/>
<path d="M102.943 348.449H100.107V351.285H102.943V348.449Z" fill="#F0F0F0"/>
<path d="M102.943 353.203H100.107V356.039H102.943V353.203Z" fill="#F0F0F0"/>
<path d="M77.087 307.081H74.251V309.917H77.087V307.081Z" fill="#F0F0F0"/>
<path d="M77.087 311.835H74.251V314.671H77.087V311.835Z" fill="#F0F0F0"/>
<path d="M77.087 316.589H74.251V319.425H77.087V316.589Z" fill="#F0F0F0"/>
<path d="M77.087 321.343H74.251V324.179H77.087V321.343Z" fill="#F0F0F0"/>
<path d="M77.087 326.097H74.251V328.933H77.087V326.097Z" fill="#F0F0F0"/>
<path d="M77.087 330.851H74.251V333.687H77.087V330.851Z" fill="#F0F0F0"/>
<path d="M77.087 335.605H74.251V338.441H77.087V335.605Z" fill="#F0F0F0"/>
<path d="M77.087 340.359H74.251V343.195H77.087V340.359Z" fill="#F0F0F0"/>
<path d="M77.087 345.113H74.251V347.949H77.087V345.113Z" fill="#F0F0F0"/>
<path d="M77.087 349.867H74.251V352.703H77.087V349.867Z" fill="#F0F0F0"/>
<path d="M77.087 354.621H74.251V357.457H77.087V354.621Z" fill="#F0F0F0"/>
<path d="M77.087 359.375H74.251V362.211H77.087V359.375Z" fill="#F0F0F0"/>
<path d="M77.087 364.129H74.251V366.965H77.087V364.129Z" fill="#F0F0F0"/>
<path d="M81.5909 307.081H78.7549V309.917H81.5909V307.081Z" fill="#F0F0F0"/>
<path d="M81.5909 311.835H78.7549V314.671H81.5909V311.835Z" fill="#F0F0F0"/>
<path d="M81.5909 316.589H78.7549V319.425H81.5909V316.589Z" fill="#F0F0F0"/>
<path d="M81.5909 321.343H78.7549V324.179H81.5909V321.343Z" fill="#F0F0F0"/>
<path d="M81.5909 326.097H78.7549V328.933H81.5909V326.097Z" fill="#F0F0F0"/>
<path d="M81.5909 330.851H78.7549V333.687H81.5909V330.851Z" fill="#F0F0F0"/>
<path d="M81.5909 335.605H78.7549V338.441H81.5909V335.605Z" fill="#F0F0F0"/>
<path d="M81.5909 340.359H78.7549V343.195H81.5909V340.359Z" fill="#F0F0F0"/>
<path d="M81.5909 345.113H78.7549V347.949H81.5909V345.113Z" fill="#F0F0F0"/>
<path d="M81.5909 349.867H78.7549V352.703H81.5909V349.867Z" fill="#F0F0F0"/>
<path d="M81.5909 354.621H78.7549V357.457H81.5909V354.621Z" fill="#F0F0F0"/>
<path d="M81.5909 359.375H78.7549V362.211H81.5909V359.375Z" fill="#F0F0F0"/>
<path d="M81.5909 364.129H78.7549V366.965H81.5909V364.129Z" fill="#F0F0F0"/>
<path d="M86.0948 307.081H83.2588V309.917H86.0948V307.081Z" fill="#F0F0F0"/>
<path d="M86.0948 311.835H83.2588V314.671H86.0948V311.835Z" fill="#F0F0F0"/>
<path d="M86.0948 316.589H83.2588V319.425H86.0948V316.589Z" fill="#F0F0F0"/>
<path d="M86.0948 321.343H83.2588V324.179H86.0948V321.343Z" fill="#F0F0F0"/>
<path d="M86.0948 326.097H83.2588V328.933H86.0948V326.097Z" fill="#F0F0F0"/>
<path d="M86.0948 330.851H83.2588V333.687H86.0948V330.851Z" fill="#F0F0F0"/>
<path d="M86.0948 335.605H83.2588V338.441H86.0948V335.605Z" fill="#F0F0F0"/>
<path d="M86.0948 340.359H83.2588V343.195H86.0948V340.359Z" fill="#F0F0F0"/>
<path d="M86.0948 345.113H83.2588V347.949H86.0948V345.113Z" fill="#F0F0F0"/>
<path d="M86.0948 349.867H83.2588V352.703H86.0948V349.867Z" fill="#F0F0F0"/>
<path d="M86.0948 354.621H83.2588V357.457H86.0948V354.621Z" fill="#F0F0F0"/>
<path d="M86.0948 359.375H83.2588V362.211H86.0948V359.375Z" fill="#F0F0F0"/>
<path d="M86.0948 364.129H83.2588V366.965H86.0948V364.129Z" fill="#F0F0F0"/>
<path d="M86.0948 368.883H83.2588V371.719H86.0948V368.883Z" fill="#F0F0F0"/>
<path d="M111.116 308.498H108.28V311.334H111.116V308.498Z" fill="#F0F0F0"/>
<path d="M111.116 313.252H108.28V316.088H111.116V313.252Z" fill="#F0F0F0"/>
<path d="M111.116 318.007H108.28V320.843H111.116V318.007Z" fill="#F0F0F0"/>
<path d="M111.116 322.76H108.28V325.596H111.116V322.76Z" fill="#F0F0F0"/>
<path d="M111.116 327.514H108.28V330.35H111.116V327.514Z" fill="#F0F0F0"/>
<path d="M111.116 332.269H108.28V335.105H111.116V332.269Z" fill="#F0F0F0"/>
<path d="M111.116 337.023H108.28V339.859H111.116V337.023Z" fill="#F0F0F0"/>
<path d="M111.116 341.777H108.28V344.613H111.116V341.777Z" fill="#F0F0F0"/>
<path d="M111.116 346.531H108.28V349.367H111.116V346.531Z" fill="#F0F0F0"/>
<path d="M111.116 351.285H108.28V354.121H111.116V351.285Z" fill="#F0F0F0"/>
<path d="M111.116 365.547H108.28V368.383H111.116V365.547Z" fill="#F0F0F0"/>
<path d="M115.62 308.498H112.784V311.334H115.62V308.498Z" fill="#F0F0F0"/>
<path d="M115.62 313.252H112.784V316.088H115.62V313.252Z" fill="#F0F0F0"/>
<path d="M115.62 318.007H112.784V320.843H115.62V318.007Z" fill="#F0F0F0"/>
<path d="M115.62 322.76H112.784V325.596H115.62V322.76Z" fill="#F0F0F0"/>
<path d="M115.62 327.514H112.784V330.35H115.62V327.514Z" fill="#F0F0F0"/>
<path d="M115.62 332.269H112.784V335.105H115.62V332.269Z" fill="#F0F0F0"/>
<path d="M115.62 337.023H112.784V339.859H115.62V337.023Z" fill="#F0F0F0"/>
<path d="M115.62 341.777H112.784V344.613H115.62V341.777Z" fill="#F0F0F0"/>
<path d="M115.62 346.531H112.784V349.367H115.62V346.531Z" fill="#F0F0F0"/>
<path d="M115.62 360.793H112.784V363.629H115.62V360.793Z" fill="#F0F0F0"/>
<path d="M115.62 365.547H112.784V368.383H115.62V365.547Z" fill="#F0F0F0"/>
<path d="M120.124 308.498H117.288V311.334H120.124V308.498Z" fill="#F0F0F0"/>
<path d="M120.124 313.252H117.288V316.088H120.124V313.252Z" fill="#F0F0F0"/>
<path d="M120.124 318.007H117.288V320.843H120.124V318.007Z" fill="#F0F0F0"/>
<path d="M120.124 322.76H117.288V325.596H120.124V322.76Z" fill="#F0F0F0"/>
<path d="M120.124 327.514H117.288V330.35H120.124V327.514Z" fill="#F0F0F0"/>
<path d="M120.124 332.269H117.288V335.105H120.124V332.269Z" fill="#F0F0F0"/>
<path d="M120.124 337.023H117.288V339.859H120.124V337.023Z" fill="#F0F0F0"/>
<path d="M120.124 341.777H117.288V344.613H120.124V341.777Z" fill="#F0F0F0"/>
<path d="M120.124 356.039H117.288V358.875H120.124V356.039Z" fill="#F0F0F0"/>
<path d="M120.124 360.793H117.288V363.629H120.124V360.793Z" fill="#F0F0F0"/>
<path d="M120.124 365.547H117.288V368.383H120.124V365.547Z" fill="#F0F0F0"/>
<path d="M161.993 236.27H159.157V239.106H161.993V236.27Z" fill="#F0F0F0"/>
<path d="M161.993 241.024H159.157V243.86H161.993V241.024Z" fill="#F0F0F0"/>
<path d="M161.993 245.778H159.157V248.614H161.993V245.778Z" fill="#F0F0F0"/>
<path d="M161.993 250.532H159.157V253.368H161.993V250.532Z" fill="#F0F0F0"/>
<path d="M161.993 255.286H159.157V258.122H161.993V255.286Z" fill="#F0F0F0"/>
<path d="M161.993 260.04H159.157V262.876H161.993V260.04Z" fill="#F0F0F0"/>
<path d="M161.993 264.794H159.157V267.63H161.993V264.794Z" fill="#F0F0F0"/>
<path d="M161.993 269.548H159.157V272.384H161.993V269.548Z" fill="#F0F0F0"/>
<path d="M161.993 274.302H159.157V277.138H161.993V274.302Z" fill="#F0F0F0"/>
<path d="M161.993 279.056H159.157V281.892H161.993V279.056Z" fill="#F0F0F0"/>
<path d="M161.993 283.811H159.157V286.647H161.993V283.811Z" fill="#F0F0F0"/>
<path d="M161.993 288.565H159.157V291.401H161.993V288.565Z" fill="#F0F0F0"/>
<path d="M161.993 293.319H159.157V296.155H161.993V293.319Z" fill="#F0F0F0"/>
<path d="M161.993 298.073H159.157V300.909H161.993V298.073Z" fill="#F0F0F0"/>
<path d="M161.993 302.827H159.157V305.663H161.993V302.827Z" fill="#F0F0F0"/>
<path d="M161.993 307.581H159.157V310.417H161.993V307.581Z" fill="#F0F0F0"/>
<path d="M161.993 312.335H159.157V315.171H161.993V312.335Z" fill="#F0F0F0"/>
<path d="M161.993 321.843H159.157V324.679H161.993V321.843Z" fill="#F0F0F0"/>
<path d="M161.993 326.597H159.157V329.433H161.993V326.597Z" fill="#F0F0F0"/>
<path d="M161.993 331.351H159.157V334.187H161.993V331.351Z" fill="#F0F0F0"/>
<path d="M161.993 336.105H159.157V338.941H161.993V336.105Z" fill="#F0F0F0"/>
<path d="M161.993 340.859H159.157V343.695H161.993V340.859Z" fill="#F0F0F0"/>
<path d="M166.497 236.27H163.661V239.106H166.497V236.27Z" fill="#F0F0F0"/>
<path d="M166.497 241.024H163.661V243.86H166.497V241.024Z" fill="#F0F0F0"/>
<path d="M166.497 245.778H163.661V248.614H166.497V245.778Z" fill="#F0F0F0"/>
<path d="M166.497 250.532H163.661V253.368H166.497V250.532Z" fill="#F0F0F0"/>
<path d="M166.497 255.286H163.661V258.122H166.497V255.286Z" fill="#F0F0F0"/>
<path d="M166.497 260.04H163.661V262.876H166.497V260.04Z" fill="#F0F0F0"/>
<path d="M166.497 264.794H163.661V267.63H166.497V264.794Z" fill="#F0F0F0"/>
<path d="M166.497 269.548H163.661V272.384H166.497V269.548Z" fill="#F0F0F0"/>
<path d="M166.497 274.302H163.661V277.138H166.497V274.302Z" fill="#F0F0F0"/>
<path d="M166.497 279.056H163.661V281.892H166.497V279.056Z" fill="#F0F0F0"/>
<path d="M166.497 283.811H163.661V286.647H166.497V283.811Z" fill="#F0F0F0"/>
<path d="M166.497 288.565H163.661V291.401H166.497V288.565Z" fill="#F0F0F0"/>
<path d="M166.497 293.319H163.661V296.155H166.497V293.319Z" fill="#F0F0F0"/>
<path d="M166.497 298.073H163.661V300.909H166.497V298.073Z" fill="#F0F0F0"/>
<path d="M166.497 302.827H163.661V305.663H166.497V302.827Z" fill="#F0F0F0"/>
<path d="M166.497 307.581H163.661V310.417H166.497V307.581Z" fill="#F0F0F0"/>
<path d="M166.497 336.105H163.661V338.941H166.497V336.105Z" fill="#F0F0F0"/>
<path d="M166.497 340.859H163.661V343.695H166.497V340.859Z" fill="#F0F0F0"/>
<path d="M171.001 236.27H168.165V239.106H171.001V236.27Z" fill="#F0F0F0"/>
<path d="M171.001 241.024H168.165V243.86H171.001V241.024Z" fill="#F0F0F0"/>
<path d="M171.001 245.778H168.165V248.614H171.001V245.778Z" fill="#F0F0F0"/>
<path d="M171.001 250.532H168.165V253.368H171.001V250.532Z" fill="#F0F0F0"/>
<path d="M171.001 255.286H168.165V258.122H171.001V255.286Z" fill="#F0F0F0"/>
<path d="M171.001 260.04H168.165V262.876H171.001V260.04Z" fill="#F0F0F0"/>
<path d="M171.001 264.794H168.165V267.63H171.001V264.794Z" fill="#F0F0F0"/>
<path d="M171.001 269.548H168.165V272.384H171.001V269.548Z" fill="#F0F0F0"/>
<path d="M171.001 274.302H168.165V277.138H171.001V274.302Z" fill="#F0F0F0"/>
<path d="M171.001 279.056H168.165V281.892H171.001V279.056Z" fill="#F0F0F0"/>
<path d="M171.001 283.811H168.165V286.647H171.001V283.811Z" fill="#F0F0F0"/>
<path d="M171.001 288.565H168.165V291.401H171.001V288.565Z" fill="#F0F0F0"/>
<path d="M171.001 293.319H168.165V296.155H171.001V293.319Z" fill="#F0F0F0"/>
<path d="M171.001 298.073H168.165V300.909H171.001V298.073Z" fill="#F0F0F0"/>
<path d="M171.001 302.827H168.165V305.663H171.001V302.827Z" fill="#F0F0F0"/>
<path d="M171.001 307.581H168.165V310.417H171.001V307.581Z" fill="#F0F0F0"/>
<path d="M171.001 317.089H168.165V319.925H171.001V317.089Z" fill="#F0F0F0"/>
<path d="M171.001 321.843H168.165V324.679H171.001V321.843Z" fill="#F0F0F0"/>
<path d="M171.001 326.597H168.165V329.433H171.001V326.597Z" fill="#F0F0F0"/>
<path d="M171.001 331.351H168.165V334.187H171.001V331.351Z" fill="#F0F0F0"/>
<path d="M171.001 340.859H168.165V343.695H171.001V340.859Z" fill="#F0F0F0"/>
<path d="M145.646 296.154H142.81V298.99H145.646V296.154Z" fill="#F0F0F0"/>
<path d="M145.646 300.908H142.81V303.744H145.646V300.908Z" fill="#F0F0F0"/>
<path d="M145.646 305.662H142.81V308.498H145.646V305.662Z" fill="#F0F0F0"/>
<path d="M145.646 310.417H142.81V313.253H145.646V310.417Z" fill="#F0F0F0"/>
<path d="M145.646 315.171H142.81V318.007H145.646V315.171Z" fill="#F0F0F0"/>
<path d="M145.646 319.925H142.81V322.761H145.646V319.925Z" fill="#F0F0F0"/>
<path d="M145.646 324.679H142.81V327.515H145.646V324.679Z" fill="#F0F0F0"/>
<path d="M145.646 334.187H142.81V337.023H145.646V334.187Z" fill="#F0F0F0"/>
<path d="M145.646 338.941H142.81V341.777H145.646V338.941Z" fill="#F0F0F0"/>
<path d="M145.646 343.695H142.81V346.531H145.646V343.695Z" fill="#F0F0F0"/>
<path d="M145.646 348.449H142.81V351.285H145.646V348.449Z" fill="#F0F0F0"/>
<path d="M145.646 353.203H142.81V356.039H145.646V353.203Z" fill="#F0F0F0"/>
<path d="M145.646 357.957H142.81V360.793H145.646V357.957Z" fill="#F0F0F0"/>
<path d="M145.646 362.711H142.81V365.547H145.646V362.711Z" fill="#F0F0F0"/>
<path d="M145.646 367.465H142.81V370.301H145.646V367.465Z" fill="#F0F0F0"/>
<path d="M150.15 296.154H147.314V298.99H150.15V296.154Z" fill="#F0F0F0"/>
<path d="M150.15 300.908H147.314V303.744H150.15V300.908Z" fill="#F0F0F0"/>
<path d="M150.15 305.662H147.314V308.498H150.15V305.662Z" fill="#F0F0F0"/>
<path d="M150.15 310.417H147.314V313.253H150.15V310.417Z" fill="#F0F0F0"/>
<path d="M150.15 315.171H147.314V318.007H150.15V315.171Z" fill="#F0F0F0"/>
<path d="M150.15 319.925H147.314V322.761H150.15V319.925Z" fill="#F0F0F0"/>
<path d="M150.15 334.187H147.314V337.023H150.15V334.187Z" fill="#F0F0F0"/>
<path d="M150.15 338.941H147.314V341.777H150.15V338.941Z" fill="#F0F0F0"/>
<path d="M150.15 343.695H147.314V346.531H150.15V343.695Z" fill="#F0F0F0"/>
<path d="M150.15 348.449H147.314V351.285H150.15V348.449Z" fill="#F0F0F0"/>
<path d="M150.15 353.203H147.314V356.039H150.15V353.203Z" fill="#F0F0F0"/>
<path d="M150.15 357.957H147.314V360.793H150.15V357.957Z" fill="#F0F0F0"/>
<path d="M150.15 362.711H147.314V365.547H150.15V362.711Z" fill="#F0F0F0"/>
<path d="M150.15 367.465H147.314V370.301H150.15V367.465Z" fill="#F0F0F0"/>
<path d="M154.654 296.154H151.818V298.99H154.654V296.154Z" fill="#F0F0F0"/>
<path d="M154.654 300.908H151.818V303.744H154.654V300.908Z" fill="#F0F0F0"/>
<path d="M154.654 305.662H151.818V308.498H154.654V305.662Z" fill="#F0F0F0"/>
<path d="M154.654 310.417H151.818V313.253H154.654V310.417Z" fill="#F0F0F0"/>
<path d="M154.654 315.171H151.818V318.007H154.654V315.171Z" fill="#F0F0F0"/>
<path d="M154.654 319.925H151.818V322.761H154.654V319.925Z" fill="#F0F0F0"/>
<path d="M154.654 329.433H151.818V332.269H154.654V329.433Z" fill="#F0F0F0"/>
<path d="M154.654 334.187H151.818V337.023H154.654V334.187Z" fill="#F0F0F0"/>
<path d="M154.654 338.941H151.818V341.777H154.654V338.941Z" fill="#F0F0F0"/>
<path d="M154.654 343.695H151.818V346.531H154.654V343.695Z" fill="#F0F0F0"/>
<path d="M154.654 348.449H151.818V351.285H154.654V348.449Z" fill="#F0F0F0"/>
<path d="M154.654 353.203H151.818V356.039H154.654V353.203Z" fill="#F0F0F0"/>
<path d="M154.654 357.957H151.818V360.793H154.654V357.957Z" fill="#F0F0F0"/>
<path d="M154.654 362.711H151.818V365.547H154.654V362.711Z" fill="#F0F0F0"/>
<path d="M154.654 367.465H151.818V370.301H154.654V367.465Z" fill="#F0F0F0"/>
<path d="M249.568 269.548H246.732V272.384H249.568V269.548Z" fill="#F0F0F0"/>
<path d="M249.568 274.302H246.732V277.138H249.568V274.302Z" fill="#F0F0F0"/>
<path d="M249.568 279.056H246.732V281.892H249.568V279.056Z" fill="#F0F0F0"/>
<path d="M249.568 283.811H246.732V286.647H249.568V283.811Z" fill="#F0F0F0"/>
<path d="M249.568 288.565H246.732V291.401H249.568V288.565Z" fill="#F0F0F0"/>
<path d="M249.568 293.319H246.732V296.155H249.568V293.319Z" fill="#F0F0F0"/>
<path d="M249.568 298.073H246.732V300.909H249.568V298.073Z" fill="#F0F0F0"/>
<path d="M249.568 302.827H246.732V305.663H249.568V302.827Z" fill="#F0F0F0"/>
<path d="M249.568 307.581H246.732V310.417H249.568V307.581Z" fill="#F0F0F0"/>
<path d="M249.568 312.335H246.732V315.171H249.568V312.335Z" fill="#F0F0F0"/>
<path d="M249.568 317.089H246.732V319.925H249.568V317.089Z" fill="#F0F0F0"/>
<path d="M249.568 321.843H246.732V324.679H249.568V321.843Z" fill="#F0F0F0"/>
<path d="M249.568 326.597H246.732V329.433H249.568V326.597Z" fill="#F0F0F0"/>
<path d="M249.568 336.105H246.732V338.941H249.568V336.105Z" fill="#F0F0F0"/>
<path d="M249.568 340.859H246.732V343.695H249.568V340.859Z" fill="#F0F0F0"/>
<path d="M249.568 345.613H246.732V348.449H249.568V345.613Z" fill="#F0F0F0"/>
<path d="M249.568 350.367H246.732V353.203H249.568V350.367Z" fill="#F0F0F0"/>
<path d="M249.568 359.875H246.732V362.711H249.568V359.875Z" fill="#F0F0F0"/>
<path d="M249.568 364.629H246.732V367.465H249.568V364.629Z" fill="#F0F0F0"/>
<path d="M249.568 369.384H246.732V372.22H249.568V369.384Z" fill="#F0F0F0"/>
<path d="M254.072 269.548H251.236V272.384H254.072V269.548Z" fill="#F0F0F0"/>
<path d="M254.072 274.302H251.236V277.138H254.072V274.302Z" fill="#F0F0F0"/>
<path d="M254.072 279.056H251.236V281.892H254.072V279.056Z" fill="#F0F0F0"/>
<path d="M254.072 283.811H251.236V286.647H254.072V283.811Z" fill="#F0F0F0"/>
<path d="M254.072 288.565H251.236V291.401H254.072V288.565Z" fill="#F0F0F0"/>
<path d="M254.072 293.319H251.236V296.155H254.072V293.319Z" fill="#F0F0F0"/>
<path d="M254.072 298.073H251.236V300.909H254.072V298.073Z" fill="#F0F0F0"/>
<path d="M254.072 302.827H251.236V305.663H254.072V302.827Z" fill="#F0F0F0"/>
<path d="M254.072 307.581H251.236V310.417H254.072V307.581Z" fill="#F0F0F0"/>
<path d="M254.072 312.335H251.236V315.171H254.072V312.335Z" fill="#F0F0F0"/>
<path d="M254.072 317.089H251.236V319.925H254.072V317.089Z" fill="#F0F0F0"/>
<path d="M254.072 321.843H251.236V324.679H254.072V321.843Z" fill="#F0F0F0"/>
<path d="M254.072 326.597H251.236V329.433H254.072V326.597Z" fill="#F0F0F0"/>
<path d="M254.072 340.859H251.236V343.695H254.072V340.859Z" fill="#F0F0F0"/>
<path d="M254.072 345.613H251.236V348.449H254.072V345.613Z" fill="#F0F0F0"/>
<path d="M254.072 355.121H251.236V357.957H254.072V355.121Z" fill="#F0F0F0"/>
<path d="M254.072 359.875H251.236V362.711H254.072V359.875Z" fill="#F0F0F0"/>
<path d="M254.072 364.629H251.236V367.465H254.072V364.629Z" fill="#F0F0F0"/>
<path d="M254.072 369.384H251.236V372.22H254.072V369.384Z" fill="#F0F0F0"/>
<path d="M258.576 269.548H255.74V272.384H258.576V269.548Z" fill="#F0F0F0"/>
<path d="M258.576 274.302H255.74V277.138H258.576V274.302Z" fill="#F0F0F0"/>
<path d="M258.576 279.056H255.74V281.892H258.576V279.056Z" fill="#F0F0F0"/>
<path d="M258.576 283.811H255.74V286.647H258.576V283.811Z" fill="#F0F0F0"/>
<path d="M258.576 288.565H255.74V291.401H258.576V288.565Z" fill="#F0F0F0"/>
<path d="M258.576 293.319H255.74V296.155H258.576V293.319Z" fill="#F0F0F0"/>
<path d="M258.576 298.073H255.74V300.909H258.576V298.073Z" fill="#F0F0F0"/>
<path d="M258.576 302.827H255.74V305.663H258.576V302.827Z" fill="#F0F0F0"/>
<path d="M258.576 307.581H255.74V310.417H258.576V307.581Z" fill="#F0F0F0"/>
<path d="M258.576 312.335H255.74V315.171H258.576V312.335Z" fill="#F0F0F0"/>
<path d="M258.576 317.089H255.74V319.925H258.576V317.089Z" fill="#F0F0F0"/>
<path d="M258.576 321.843H255.74V324.679H258.576V321.843Z" fill="#F0F0F0"/>
<path d="M258.576 326.597H255.74V329.433H258.576V326.597Z" fill="#F0F0F0"/>
<path d="M258.576 331.351H255.74V334.187H258.576V331.351Z" fill="#F0F0F0"/>
<path d="M258.576 340.859H255.74V343.695H258.576V340.859Z" fill="#F0F0F0"/>
<path d="M258.576 350.367H255.74V353.203H258.576V350.367Z" fill="#F0F0F0"/>
<path d="M258.576 355.121H255.74V357.957H258.576V355.121Z" fill="#F0F0F0"/>
<path d="M258.576 359.875H255.74V362.711H258.576V359.875Z" fill="#F0F0F0"/>
<path d="M258.576 364.629H255.74V367.465H258.576V364.629Z" fill="#F0F0F0"/>
<path d="M258.576 369.384H255.74V372.22H258.576V369.384Z" fill="#F0F0F0"/>
<path d="M231.219 296.655H228.383V299.491H231.219V296.655Z" fill="#F0F0F0"/>
<path d="M231.219 301.409H228.383V304.245H231.219V301.409Z" fill="#F0F0F0"/>
<path d="M231.219 306.163H228.383V308.999H231.219V306.163Z" fill="#F0F0F0"/>
<path d="M231.219 310.917H228.383V313.753H231.219V310.917Z" fill="#F0F0F0"/>
<path d="M231.219 315.671H228.383V318.507H231.219V315.671Z" fill="#F0F0F0"/>
<path d="M231.219 320.425H228.383V323.261H231.219V320.425Z" fill="#F0F0F0"/>
<path d="M231.219 334.687H228.383V337.523H231.219V334.687Z" fill="#F0F0F0"/>
<path d="M231.219 339.441H228.383V342.277H231.219V339.441Z" fill="#F0F0F0"/>
<path d="M231.219 344.195H228.383V347.031H231.219V344.195Z" fill="#F0F0F0"/>
<path d="M231.219 348.95H228.383V351.786H231.219V348.95Z" fill="#F0F0F0"/>
<path d="M231.219 353.704H228.383V356.54H231.219V353.704Z" fill="#F0F0F0"/>
<path d="M231.219 358.458H228.383V361.294H231.219V358.458Z" fill="#F0F0F0"/>
<path d="M231.219 363.212H228.383V366.048H231.219V363.212Z" fill="#F0F0F0"/>
<path d="M235.723 296.655H232.887V299.491H235.723V296.655Z" fill="#F0F0F0"/>
<path d="M235.723 301.409H232.887V304.245H235.723V301.409Z" fill="#F0F0F0"/>
<path d="M235.723 306.163H232.887V308.999H235.723V306.163Z" fill="#F0F0F0"/>
<path d="M235.723 310.917H232.887V313.753H235.723V310.917Z" fill="#F0F0F0"/>
<path d="M235.723 315.671H232.887V318.507H235.723V315.671Z" fill="#F0F0F0"/>
<path d="M235.723 320.425H232.887V323.261H235.723V320.425Z" fill="#F0F0F0"/>
<path d="M235.723 334.687H232.887V337.523H235.723V334.687Z" fill="#F0F0F0"/>
<path d="M235.723 339.441H232.887V342.277H235.723V339.441Z" fill="#F0F0F0"/>
<path d="M235.723 344.195H232.887V347.031H235.723V344.195Z" fill="#F0F0F0"/>
<path d="M235.723 348.95H232.887V351.786H235.723V348.95Z" fill="#F0F0F0"/>
<path d="M235.723 353.704H232.887V356.54H235.723V353.704Z" fill="#F0F0F0"/>
<path d="M235.723 358.458H232.887V361.294H235.723V358.458Z" fill="#F0F0F0"/>
<path d="M235.723 367.966H232.887V370.802H235.723V367.966Z" fill="#F0F0F0"/>
<path d="M385.35 275.72H382.514V278.556H385.35V275.72Z" fill="#F0F0F0"/>
<path d="M385.35 280.474H382.514V283.31H385.35V280.474Z" fill="#F0F0F0"/>
<path d="M385.35 285.228H382.514V288.064H385.35V285.228Z" fill="#F0F0F0"/>
<path d="M385.35 289.983H382.514V292.819H385.35V289.983Z" fill="#F0F0F0"/>
<path d="M385.35 294.737H382.514V297.573H385.35V294.737Z" fill="#F0F0F0"/>
<path d="M385.35 299.491H382.514V302.327H385.35V299.491Z" fill="#F0F0F0"/>
<path d="M385.35 304.245H382.514V307.081H385.35V304.245Z" fill="#F0F0F0"/>
<path d="M385.35 308.999H382.514V311.835H385.35V308.999Z" fill="#F0F0F0"/>
<path d="M385.35 313.753H382.514V316.589H385.35V313.753Z" fill="#F0F0F0"/>
<path d="M385.35 318.507H382.514V321.343H385.35V318.507Z" fill="#F0F0F0"/>
<path d="M385.35 323.261H382.514V326.097H385.35V323.261Z" fill="#F0F0F0"/>
<path d="M385.35 332.769H382.514V335.605H385.35V332.769Z" fill="#F0F0F0"/>
<path d="M385.35 337.523H382.514V340.359H385.35V337.523Z" fill="#F0F0F0"/>
<path d="M385.35 342.277H382.514V345.113H385.35V342.277Z" fill="#F0F0F0"/>
<path d="M385.35 347.031H382.514V349.867H385.35V347.031Z" fill="#F0F0F0"/>
<path d="M385.35 351.785H382.514V354.621H385.35V351.785Z" fill="#F0F0F0"/>
<path d="M385.35 356.539H382.514V359.375H385.35V356.539Z" fill="#F0F0F0"/>
<path d="M385.35 361.293H382.514V364.129H385.35V361.293Z" fill="#F0F0F0"/>
<path d="M385.35 366.047H382.514V368.883H385.35V366.047Z" fill="#F0F0F0"/>
<path d="M389.854 275.72H387.018V278.556H389.854V275.72Z" fill="#F0F0F0"/>
<path d="M389.854 280.474H387.018V283.31H389.854V280.474Z" fill="#F0F0F0"/>
<path d="M389.854 285.228H387.018V288.064H389.854V285.228Z" fill="#F0F0F0"/>
<path d="M389.854 289.983H387.018V292.819H389.854V289.983Z" fill="#F0F0F0"/>
<path d="M389.854 294.737H387.018V297.573H389.854V294.737Z" fill="#F0F0F0"/>
<path d="M389.854 299.491H387.018V302.327H389.854V299.491Z" fill="#F0F0F0"/>
<path d="M389.854 304.245H387.018V307.081H389.854V304.245Z" fill="#F0F0F0"/>
<path d="M389.854 308.999H387.018V311.835H389.854V308.999Z" fill="#F0F0F0"/>
<path d="M389.854 313.753H387.018V316.589H389.854V313.753Z" fill="#F0F0F0"/>
<path d="M389.854 318.507H387.018V321.343H389.854V318.507Z" fill="#F0F0F0"/>
<path d="M389.854 323.261H387.018V326.097H389.854V323.261Z" fill="#F0F0F0"/>
<path d="M389.854 328.015H387.018V330.851H389.854V328.015Z" fill="#F0F0F0"/>
<path d="M389.854 332.769H387.018V335.605H389.854V332.769Z" fill="#F0F0F0"/>
<path d="M389.854 337.523H387.018V340.359H389.854V337.523Z" fill="#F0F0F0"/>
<path d="M389.854 342.277H387.018V345.113H389.854V342.277Z" fill="#F0F0F0"/>
<path d="M389.854 347.031H387.018V349.867H389.854V347.031Z" fill="#F0F0F0"/>
<path d="M389.854 351.785H387.018V354.621H389.854V351.785Z" fill="#F0F0F0"/>
<path d="M389.854 356.539H387.018V359.375H389.854V356.539Z" fill="#F0F0F0"/>
<path d="M389.854 361.293H387.018V364.129H389.854V361.293Z" fill="#F0F0F0"/>
<path d="M389.854 366.047H387.018V368.883H389.854V366.047Z" fill="#F0F0F0"/>
<path d="M363.165 294.236H360.329V297.072H363.165V294.236Z" fill="#F0F0F0"/>
<path d="M363.165 298.99H360.329V301.826H363.165V298.99Z" fill="#F0F0F0"/>
<path d="M363.165 303.744H360.329V306.58H363.165V303.744Z" fill="#F0F0F0"/>
<path d="M363.165 308.498H360.329V311.334H363.165V308.498Z" fill="#F0F0F0"/>
<path d="M363.165 313.252H360.329V316.088H363.165V313.252Z" fill="#F0F0F0"/>
<path d="M363.165 318.007H360.329V320.843H363.165V318.007Z" fill="#F0F0F0"/>
<path d="M363.165 322.76H360.329V325.596H363.165V322.76Z" fill="#F0F0F0"/>
<path d="M363.165 327.514H360.329V330.35H363.165V327.514Z" fill="#F0F0F0"/>
<path d="M363.165 332.269H360.329V335.105H363.165V332.269Z" fill="#F0F0F0"/>
<path d="M363.165 337.023H360.329V339.859H363.165V337.023Z" fill="#F0F0F0"/>
<path d="M367.668 294.236H364.832V297.072H367.668V294.236Z" fill="#F0F0F0"/>
<path d="M367.668 298.99H364.832V301.826H367.668V298.99Z" fill="#F0F0F0"/>
<path d="M367.668 303.744H364.832V306.58H367.668V303.744Z" fill="#F0F0F0"/>
<path d="M367.668 308.498H364.832V311.334H367.668V308.498Z" fill="#F0F0F0"/>
<path d="M367.668 313.252H364.832V316.088H367.668V313.252Z" fill="#F0F0F0"/>
<path d="M367.668 318.007H364.832V320.843H367.668V318.007Z" fill="#F0F0F0"/>
<path d="M367.668 322.76H364.832V325.596H367.668V322.76Z" fill="#F0F0F0"/>
<path d="M367.668 327.514H364.832V330.35H367.668V327.514Z" fill="#F0F0F0"/>
<path d="M367.668 332.269H364.832V335.105H367.668V332.269Z" fill="#F0F0F0"/>
<path d="M147.139 180.529C147.139 175.66 143.191 171.712 138.322 171.712C137.442 171.712 136.593 171.845 135.79 172.085C135.918 171.201 135.988 170.298 135.988 169.378C135.988 159.066 127.629 150.707 117.317 150.707C116.142 150.707 114.993 150.821 113.878 151.029C111.008 146.332 105.85 143.187 99.9432 143.187C91.0032 143.187 83.7512 150.37 83.6182 159.279C83.5272 159.277 83.4382 159.265 83.3462 159.265C75.0392 159.265 68.3052 165.999 68.3052 174.306C68.3052 182.613 75.0392 189.346 83.3462 189.346H138.581L138.57 189.334C143.324 189.201 147.139 185.315 147.139 180.529Z" fill="#F0F0F0"/>
<path d="M218.871 164.676C218.871 161.567 221.391 159.046 224.5 159.046C225.062 159.046 225.604 159.131 226.117 159.284C226.035 158.72 225.991 158.143 225.991 157.556C225.991 150.972 231.328 145.635 237.912 145.635C238.663 145.635 239.396 145.708 240.108 145.84C241.94 142.841 245.234 140.833 249.005 140.833C254.713 140.833 259.343 145.419 259.428 151.107C259.486 151.106 259.543 151.098 259.601 151.098C264.905 151.098 269.204 155.397 269.204 160.701C269.204 166.005 264.905 170.304 259.601 170.304H224.335L224.342 170.296C221.307 170.213 218.871 167.732 218.871 164.676Z" fill="#F0F0F0"/>
<path d="M382.312 178.687C382.312 175.578 384.832 173.058 387.941 173.058C388.503 173.058 389.045 173.143 389.557 173.296C389.475 172.732 389.431 172.155 389.431 171.568C389.431 164.984 394.768 159.647 401.352 159.647C402.102 159.647 402.836 159.72 403.548 159.852C405.38 156.853 408.674 154.845 412.445 154.845C418.153 154.845 422.783 159.431 422.868 165.119C422.926 165.118 422.983 165.11 423.041 165.11C428.345 165.11 432.644 169.409 432.644 174.713C432.644 180.017 428.345 184.316 423.041 184.316H387.775L387.782 184.308C384.748 184.224 382.312 181.742 382.312 178.687Z" fill="#F0F0F0"/>
<path d="M157.919 108.459C157.919 106.554 159.463 105.011 161.367 105.011C161.711 105.011 162.043 105.063 162.357 105.157C162.307 104.811 162.28 104.458 162.28 104.098C162.28 100.065 165.549 96.795 169.583 96.795C170.043 96.795 170.492 96.84 170.928 96.921C172.05 95.084 174.068 93.854 176.378 93.854C179.875 93.854 182.711 96.664 182.763 100.148C182.799 100.147 182.833 100.143 182.869 100.143C186.118 100.143 188.752 102.777 188.752 106.026C188.752 109.275 186.118 111.909 182.869 111.909H161.265L161.269 111.904C159.412 111.851 157.919 110.331 157.919 108.459Z" fill="#F0F0F0"/>
<path d="M304.872 110.976C304.872 109.071 306.416 107.527 308.32 107.527C308.664 107.527 308.996 107.579 309.31 107.673C309.26 107.327 309.233 106.974 309.233 106.614C309.233 102.581 312.503 99.3121 316.536 99.3121C316.996 99.3121 317.445 99.3571 317.881 99.4381C319.003 97.6011 321.021 96.3711 323.331 96.3711C326.828 96.3711 329.664 99.1801 329.716 102.665C329.752 102.664 329.786 102.66 329.822 102.66C333.071 102.66 335.705 105.294 335.705 108.543C335.705 111.792 333.071 114.426 329.822 114.426H308.218L308.222 114.421C306.364 114.367 304.872 112.847 304.872 110.976Z" fill="#F0F0F0"/>
<path d="M250 427.561C357.082 427.561 443.889 422.492 443.889 416.238C443.889 409.985 357.082 404.915 250 404.915C142.918 404.915 56.1108 409.985 56.1108 416.238C56.1108 422.492 142.918 427.561 250 427.561Z" fill="#F5F5F5"/>
<path d="M85.2199 229.221H73.2769V401.512H85.2199V229.221Z" fill="#EF7F1A"/>
<path d="M108.189 265.728H96.2461V401.512H108.189V265.728Z" fill="#EF7F1A"/>
<path d="M131.159 294.219H119.216V401.513H131.159V294.219Z" fill="#EF7F1A"/>
<path d="M154.128 319.453H142.185V401.513H154.128V319.453Z" fill="#EF7F1A"/>
<path d="M177.098 341.516H165.155V401.512H177.098V341.516Z" fill="#EF7F1A"/>
<path d="M200.067 357.481H188.124V401.513H200.067V357.481Z" fill="#EF7F1A"/>
<path d="M223.036 370.601H211.093V401.513H223.036V370.601Z" fill="#EF7F1A"/>
<g opacity="0.7">
<path d="M85.2199 229.221H73.2769V401.512H85.2199V229.221Z" fill="white"/>
<path d="M108.189 265.728H96.2461V401.512H108.189V265.728Z" fill="white"/>
<path d="M131.159 294.219H119.216V401.513H131.159V294.219Z" fill="white"/>
<path d="M154.128 319.453H142.185V401.513H154.128V319.453Z" fill="white"/>
<path d="M177.098 341.516H165.155V401.512H177.098V341.516Z" fill="white"/>
<path d="M200.067 357.481H188.124V401.513H200.067V357.481Z" fill="white"/>
<path d="M223.036 370.601H211.093V401.513H223.036V370.601Z" fill="white"/>
</g>
<path d="M71.624 182.601L69.21 196.09L82.685 190.691L71.624 182.601Z" fill="#EF7F1A"/>
<path d="M75.4531 192.589C75.4531 192.589 121.08 314.67 241.731 372.219" stroke="#EF7F1A" stroke-width="8" stroke-miterlimit="10"/>
<path d="M358.356 405.379C358.356 405.379 350.405 389.862 352.404 388.342C354.403 386.822 358.352 401.306 358.356 400.179C358.36 399.053 358.134 379.323 361.807 380.105C365.48 380.887 361.807 399.053 361.807 399.053C361.807 399.053 366.75 389.771 368.686 390.472C370.623 391.173 362.974 402.212 362.974 402.212C362.974 402.212 367.54 399.45 368.686 399.664C369.832 399.877 362.974 405.38 362.974 405.38H358.356V405.379Z" fill="#EF7F1A"/>
<path d="M143.663 409.733C143.663 409.733 151.614 394.216 149.615 392.696C147.616 391.176 143.667 405.66 143.663 404.533C143.66 403.407 143.885 383.677 140.212 384.459C136.539 385.241 140.212 403.407 140.212 403.407C140.212 403.407 133.336 390.293 131.512 393.637C129.929 396.538 139.044 406.566 139.044 406.566C139.044 406.566 129.978 400.427 129.929 403.132C129.877 406.033 139.044 409.734 139.044 409.734H143.663V409.733Z" fill="#EF7F1A"/>
<path d="M265.58 396.679C265.58 396.679 258.033 387.294 260.93 386.433C263.828 385.571 265.816 393.381 266.331 392.348C266.846 391.315 266.507 380.999 271.331 382.548C276.155 384.097 269.534 392.904 269.534 392.904C269.534 392.904 273.885 389.575 275.058 390.419C276.231 391.262 269.829 397.417 269.829 397.417L265.58 396.679Z" fill="#EF7F1A"/>
<path d="M196.457 385.15C196.457 385.15 201.563 374.243 198.544 374.093C195.524 373.943 194.545 382.389 194.545 382.389C194.545 382.389 192.837 371.072 188.316 372.637C183.528 374.295 191.776 383.219 191.776 383.219C191.776 383.219 183.864 378.208 183.337 380.977C182.69 384.375 193.575 386.406 193.575 386.406L196.457 385.15Z" fill="#EF7F1A"/>
<path d="M116.532 416.914H385.885L374.809 404.915L294.573 396.47H266.507L246.238 380.051L193.6 384.337L150.374 400.543L141.478 408.742H127.672L116.532 416.914Z" fill="#263238"/>
<path opacity="0.5" d="M116.532 416.914H385.885L374.809 404.915L294.573 396.47H266.507L246.238 380.051L193.6 384.337L150.374 400.543L141.478 408.742H127.672L116.532 416.914Z" fill="white"/>
<path opacity="0.2" d="M141.478 408.742L169.828 413.568H185.182L167.775 410.555L150.374 400.543L141.478 408.742Z" fill="black"/>
<path opacity="0.2" d="M266.507 396.47H251.209L226.589 405.242L239.248 392.73L257.543 389.208L266.507 396.47Z" fill="black"/>
<path opacity="0.2" d="M374.809 404.915L345.797 413.568L320.606 407.056L343.032 416.914H385.885L374.809 404.915Z" fill="black"/>
<path d="M236.598 386.581L229.594 384.602L232.19 367.822L239.193 369.801L236.598 386.581Z" fill="#E4897B"/>
<path d="M229.435 378.727H238.308C238.606 378.727 238.865 378.934 238.933 379.224L240.435 385.693C240.591 386.364 240.07 386.999 239.382 386.987C236.527 386.938 234.442 386.771 230.846 386.771C228.634 386.771 221.965 387.001 218.91 387.001C215.922 387.001 215.426 383.98 216.674 383.707C222.269 382.48 226.478 380.789 228.257 379.175C228.579 378.884 229 378.727 229.435 378.727Z" fill="#263238"/>
<path d="M349.632 406.034L342.51 407.532L337.02 391.464L344.142 389.966L349.632 406.034Z" fill="#E4897B"/>
<path d="M287.287 247.29C287.287 247.29 254.039 283.968 245.054 298.481C236.069 312.994 228.246 374.384 228.246 374.384L241.494 377.583C241.494 377.583 256.893 317.727 260.994 311.733C265.096 305.738 308.636 265.109 308.636 265.109L287.287 247.29Z" fill="#263238"/>
<path opacity="0.1" d="M308.642 265.109C308.642 265.109 307.003 266.64 304.323 269.152C300.722 272.538 295.243 277.694 289.369 283.304C277.154 294.944 263.23 308.462 260.993 311.728C256.89 317.721 241.493 377.585 241.493 377.585L228.25 374.379C228.25 374.379 236.074 312.997 245.058 298.485C254.042 283.962 287.288 247.295 287.288 247.295L308.642 265.109Z" fill="white"/>
<path opacity="0.2" d="M304.323 269.152C300.722 272.538 295.243 277.694 289.369 283.304C293.257 272.753 302.66 265.922 302.66 265.922L304.323 269.152Z" fill="black"/>
<path d="M298.871 249.918C298.871 249.918 307.42 312.337 311.55 333.289C316.072 356.232 336.199 398.8 336.199 398.8L349.244 396.056C349.244 396.056 335.529 356.714 332.495 333.679C329.102 307.92 324.009 249.732 324.009 249.732L298.871 249.918Z" fill="#263238"/>
<g opacity="0.1">
<path d="M298.871 249.918C298.871 249.918 307.42 312.337 311.55 333.289C316.072 356.232 336.199 398.8 336.199 398.8L349.244 396.056C349.244 396.056 335.529 356.714 332.495 333.679C329.102 307.92 324.009 249.732 324.009 249.732L298.871 249.918Z" fill="white"/>
</g>
<path d="M248.168 171.888L247.596 164.492L255.271 167.458C255.271 167.458 255.383 174.088 251.964 174.002L248.168 171.888Z" fill="#E4897B"/>
<path d="M250.582 160.224L257.83 160.68L255.271 167.458L247.596 164.492L250.582 160.224Z" fill="#E4897B"/>
<path d="M247.905 173.189L248.11 171.141L254.305 172.406L253.816 174.565L247.905 173.189Z" fill="#EF7F1A"/>
<path opacity="0.7" d="M247.905 173.189L248.11 171.141L254.305 172.406L253.816 174.565L247.905 173.189Z" fill="white"/>
<path d="M277.475 162.202H261.429C260.863 162.202 260.404 163.426 260.404 164.935C260.404 166.444 260.863 167.668 261.429 167.668H277.475C278.041 167.668 278.5 166.444 278.5 164.935C278.5 163.426 278.041 162.202 277.475 162.202Z" fill="#EF7F1A"/>
<path opacity="0.4" d="M277.475 162.202H261.429C260.863 162.202 260.404 163.426 260.404 164.935C260.404 166.444 260.863 167.668 261.429 167.668H277.475C278.041 167.668 278.5 166.444 278.5 164.935C278.5 163.426 278.041 162.202 277.475 162.202Z" fill="white"/>
<path d="M261.19 161.45H242.043C241.321 161.45 240.736 163.01 240.736 164.935C240.736 166.86 241.321 168.42 242.043 168.42H261.19C261.912 168.42 262.497 166.86 262.497 164.935C262.498 163.011 261.912 161.45 261.19 161.45Z" fill="#EF7F1A"/>
<path opacity="0.2" d="M261.19 161.45H242.043C241.321 161.45 240.736 163.01 240.736 164.935C240.736 166.86 241.321 168.42 242.043 168.42H261.19C261.912 168.42 262.497 166.86 262.497 164.935C262.498 163.011 261.912 161.45 261.19 161.45Z" fill="white"/>
<path d="M242.307 160.747H222.299C221.431 160.747 220.728 162.622 220.728 164.936C220.728 167.249 221.432 169.125 222.299 169.125H242.307C243.175 169.125 243.878 167.25 243.878 164.936C243.878 162.622 243.175 160.747 242.307 160.747Z" fill="#EF7F1A"/>
<path opacity="0.4" d="M242.307 160.747H222.299C221.431 160.747 220.728 162.622 220.728 164.936C220.728 167.249 221.432 169.125 222.299 169.125H242.307C243.175 169.125 243.878 167.25 243.878 164.936C243.878 162.622 243.175 160.747 242.307 160.747Z" fill="white"/>
<path opacity="0.2" d="M223.871 164.936C223.871 167.249 223.168 169.125 222.3 169.125C221.432 169.125 220.729 167.25 220.729 164.936C220.729 162.622 221.433 160.747 222.3 160.747C223.167 160.747 223.871 162.622 223.871 164.936Z" fill="white"/>
<path d="M222.299 168.648C221.914 168.648 221.205 167.238 221.205 164.935C221.205 162.633 221.914 161.223 222.299 161.223C222.685 161.223 223.394 162.633 223.394 164.935C223.395 167.238 222.686 168.648 222.299 168.648Z" fill="black"/>
<path d="M339.919 400.275H348.792C349.09 400.275 349.349 400.482 349.417 400.772L350.92 407.241C351.076 407.912 350.555 408.547 349.867 408.535C347.012 408.486 344.927 408.319 341.331 408.319C339.119 408.319 332.45 408.549 329.395 408.549C326.407 408.549 325.911 405.528 327.159 405.255C332.754 404.028 336.963 402.337 338.742 400.723C339.063 400.431 339.483 400.275 339.919 400.275Z" fill="#263238"/>
<path d="M274.655 190.423C274.655 190.423 270.707 191.374 266.527 192.007C264.432 192.309 262.346 192.601 260.336 192.808C259.332 192.91 258.349 192.974 257.455 193.017C257.269 193.025 257.094 193.028 256.923 193.031C256.69 192.394 256.473 191.645 256.282 190.869C255.813 188.967 255.42 186.901 255.084 184.815C254.415 180.637 254.212 173.54 254.212 173.54L247.774 171.966C247.17 176.463 246.835 180.901 246.845 185.472C246.863 187.758 246.931 190.06 247.222 192.48C247.376 193.696 247.566 194.934 247.932 196.32C248.123 197.018 248.345 197.755 248.75 198.615C248.975 199.066 249.2 199.513 249.607 200.071C250.012 200.612 250.531 201.248 251.493 201.879C251.754 202.04 252.021 202.188 252.302 202.319C252.61 202.453 252.952 202.574 253.259 202.661L253.955 202.832C254.422 202.939 254.78 202.988 255.185 203.054C255.922 203.152 256.61 203.215 257.258 203.252C258.557 203.332 259.768 203.324 260.954 203.294C263.323 203.237 265.602 203.071 267.863 202.842C272.391 202.39 276.762 201.722 281.22 200.828L274.655 190.423Z" fill="#263238"/>
<path d="M316.306 188.051C316.046 196.175 316.587 203.169 317.482 210.841C318.142 216.47 319.004 221.809 319.899 226.638C321.998 237.98 324.276 246.502 324.646 249.48C319.143 250.29 297.767 253.43 285.668 255.202C270.154 213.692 275.564 190.262 275.564 190.262C275.564 190.262 279.778 188.759 284.791 187.737C285.446 187.599 286.116 187.48 286.798 187.368C291.183 186.645 298.429 186.282 303.387 186.161C304.423 186.137 305.474 186.139 306.498 186.157C311.677 186.26 316.306 188.051 316.306 188.051Z" fill="#EF7F1A"/>
<path opacity="0.7" d="M316.306 188.051C316.046 196.175 316.587 203.169 317.482 210.841C318.142 216.47 319.004 221.809 319.899 226.638C321.998 237.98 324.276 246.502 324.646 249.48C319.143 250.29 297.767 253.43 285.668 255.202C270.154 213.692 275.564 190.262 275.564 190.262C275.564 190.262 279.778 188.759 284.791 187.737C285.446 187.599 286.116 187.48 286.798 187.368C291.183 186.645 298.429 186.282 303.387 186.161C304.423 186.137 305.474 186.139 306.498 186.157C311.677 186.26 316.306 188.051 316.306 188.051Z" fill="white"/>
<path d="M290.248 196.788C289.762 199.812 288.221 207.581 288.289 215.238C289.009 216.724 289.978 220.344 290.853 221.814C291.493 220.138 292.604 216.686 293.364 214.996C292.687 207.719 291.397 200.422 291.795 196.603L290.248 196.788Z" fill="#EF7F1A"/>
<path d="M290.709 199.09L288.8 195.689L291.223 194.151L293.364 195.043L290.709 199.09Z" fill="#EF7F1A"/>
<path d="M298.529 169.073C298.352 174.482 298.89 184.261 303.147 187.201C300.897 190.388 297.28 193.36 291.343 194.136C286.795 194.731 286.95 190.922 287.675 189.018C292.408 187.007 291.563 183.086 289.875 179.162L298.529 169.073Z" fill="#E4897B"/>
<path d="M291.223 194.151C291.223 194.151 293.273 196.082 295.615 197.945C298.364 195.93 304.732 190.683 303.89 186.798C303.336 185.71 301.721 185.235 301.721 185.235C301.721 185.235 297.915 190.064 291.223 194.151Z" fill="white"/>
<path d="M291.223 194.151C291.223 194.151 289.159 196.391 287.971 199.034C285.606 197.844 286.447 190.061 287.142 189.137C289.084 186.829 290.88 186.143 290.88 186.143C290.88 186.143 289.349 190.32 291.223 194.151Z" fill="white"/>
<path opacity="0.2" d="M295.001 173.189L289.878 179.157C290.281 180.085 290.632 181.035 290.855 181.977C293.046 181.311 295.728 178.384 295.584 176.005C295.513 174.819 295.28 173.704 295.001 173.189Z" fill="black"/>
<path d="M279.837 156.578C278.721 159.295 278.715 165.07 282.774 163.538C286.832 162.005 281.755 151.908 279.837 156.578Z" fill="#263238"/>
<path d="M299.631 162.06C299.45 169.271 299.711 173.505 296.203 177.296C290.926 183 281.903 179.938 279.921 172.797C278.137 166.37 278.732 155.657 285.688 152.605C292.54 149.598 299.812 154.849 299.631 162.06Z" fill="#E4897B"/>
<path d="M295.266 149.816C295.014 149.828 294.808 149.927 294.599 149.934C294.599 149.934 295.22 164.034 298.462 167.114C306.746 164.773 311.005 149.063 295.266 149.816Z" fill="#263238"/>
<path d="M302.625 167.957C302.117 169.83 300.787 171.286 299.385 172.047C297.277 173.191 295.668 171.428 295.789 169.154C295.898 167.107 297.127 164.045 299.467 163.837C301.772 163.632 303.206 165.815 302.625 167.957Z" fill="#E4897B"/>
<path d="M282.126 164.537C282.147 165.123 281.853 165.607 281.47 165.617C281.086 165.627 280.758 165.16 280.736 164.574C280.715 163.988 281.009 163.504 281.393 163.494C281.776 163.484 282.105 163.951 282.126 164.537Z" fill="#263238"/>
<path d="M284.247 164.773C284.247 164.773 282.997 168.065 281.571 169.685C282.629 170.573 284.379 170.083 284.379 170.083L284.247 164.773Z" fill="#DE5753"/>
<path d="M287.607 172.242C287.367 172.281 287.113 172.306 286.844 172.312C286.749 172.315 286.668 172.24 286.665 172.145C286.661 172.049 286.738 171.971 286.831 171.968C289.411 171.897 290.547 170.071 290.558 170.052C290.607 169.971 290.713 169.946 290.795 169.995C290.877 170.045 290.903 170.151 290.854 170.232C290.81 170.307 289.83 171.882 287.607 172.242Z" fill="#263238"/>
<path d="M289.239 162.814C289.137 162.877 289.004 162.885 288.89 162.823C287.533 162.085 286.404 162.667 286.393 162.673C286.225 162.762 286.015 162.699 285.924 162.532C285.833 162.365 285.897 162.157 286.064 162.068C286.123 162.036 287.538 161.306 289.221 162.222C289.389 162.313 289.451 162.522 289.36 162.688C289.329 162.741 289.288 162.784 289.239 162.814Z" fill="#263238"/>
<path d="M278.813 161.902C278.749 161.889 278.687 161.858 278.637 161.808C278.501 161.674 278.498 161.455 278.631 161.319C279.961 159.959 281.515 160.276 281.586 160.281C281.772 160.32 281.893 160.503 281.857 160.689C281.82 160.875 281.641 160.995 281.456 160.958C281.392 160.942 280.192 160.714 279.124 161.805C279.04 161.892 278.922 161.923 278.813 161.902Z" fill="#263238"/>
<path d="M287.142 164.556C287.142 164.556 287.88 163.838 288.773 164.271" stroke="#263238" stroke-width="0.2991" stroke-miterlimit="10" stroke-linecap="round" stroke-linejoin="round"/>
<path d="M297.202 159.159C297.202 159.159 294.024 159.001 292.734 155.925C291.444 152.849 290.34 155.355 290.34 155.355C290.34 155.355 289.916 154.426 287.142 153.874C284.368 153.322 282.531 160.777 279.534 159.574C276.537 158.37 277.407 155.355 277.407 155.355C277.407 155.355 278.721 154.712 280.199 150.64C281.864 146.054 289.867 144.014 296.808 147.485C303.749 150.956 297.202 159.159 297.202 159.159Z" fill="#263238"/>
<path d="M330.091 259.043L300.985 265.108L293.363 254.074L288.818 264.343L276.137 257.153L282.884 247.295C270.383 216.921 274.654 190.423 274.654 190.423C280.193 187.731 287.287 187.289 287.287 187.289C280.025 198.319 290.852 221.814 290.852 221.814C297.36 203.666 305.148 186.14 305.148 186.14C311.764 185.649 317.47 187.42 317.47 187.42C317.47 187.42 320.305 228.812 324.062 239.328C327.806 249.832 330.091 259.043 330.091 259.043Z" fill="#263238"/>
<path opacity="0.1" d="M300.901 201.142L306.978 208.798C306.978 208.798 292.778 218.967 288.603 235.847L290.098 225.989L278.422 209.588L283.793 202.877L277.405 198.14C277.405 198.14 282.896 188.893 287.287 187.289C280.025 198.319 290.852 221.814 290.852 221.814C297.36 203.666 305.148 186.14 305.148 186.14C305.148 186.14 310.292 189.789 313.056 197.433L300.901 201.142Z" fill="white"/>
<path d="M363.166 252.205C363.65 254.194 360.043 256.781 355.109 257.983C350.174 259.185 345.782 258.546 345.297 256.557C344.813 254.568 348.42 251.981 353.354 250.779C358.288 249.577 362.681 250.215 363.166 252.205Z" stroke="#263238" stroke-width="1.1963" stroke-miterlimit="10"/>
<path d="M376.935 249.755L384.635 281.37C384.887 282.405 384.257 283.457 383.211 283.712L337.09 294.945C336.055 295.197 335 294.555 334.748 293.521L327.048 261.906C326.793 260.86 327.438 259.816 328.472 259.564L374.593 248.331C375.64 248.076 376.68 248.709 376.935 249.755Z" fill="#263238"/>
<path opacity="0.1" d="M376.935 249.755L384.635 281.37C384.887 282.405 384.257 283.457 383.211 283.712L337.09 294.945C336.055 295.197 335 294.555 334.748 293.521L327.048 261.906C326.793 260.86 327.438 259.816 328.472 259.564L374.593 248.331C375.64 248.076 376.68 248.709 376.935 249.755Z" fill="white"/>
<path d="M331.581 260.801L339.281 292.416C339.533 293.45 338.891 294.506 337.857 294.758L337.09 294.945C336.055 295.197 335 294.555 334.748 293.521L327.048 261.906C326.793 260.86 327.438 259.816 328.472 259.564L329.239 259.377C330.274 259.124 331.326 259.754 331.581 260.801Z" fill="#263238"/>
<path d="M329.749 259.28C330.718 259.044 331.735 259.763 331.971 260.732L335.541 275.39C335.742 276.214 336.573 276.72 337.397 276.519L379.765 266.2C380.589 265.999 381.095 265.168 380.894 264.344L377.312 249.638C377.061 248.608 376.023 247.977 374.994 248.228L328.854 259.465L329.749 259.28Z" fill="#263238"/>
<path opacity="0.2" d="M329.749 259.28C330.718 259.044 331.735 259.763 331.971 260.732L335.541 275.39C335.742 276.214 336.573 276.72 337.397 276.519L379.765 266.2C380.589 265.999 381.095 265.168 380.894 264.344L377.312 249.638C377.061 248.608 376.023 247.977 374.994 248.228L328.854 259.465L329.749 259.28Z" fill="white"/>
<path d="M362.727 277.819L359.297 278.654C358.99 278.729 358.681 278.541 358.606 278.234L356.539 269.746L361.08 268.64L363.147 277.127C363.222 277.435 363.034 277.744 362.727 277.819Z" fill="#263238"/>
<path d="M362.416 275.378L358.45 276.344C357.974 276.46 357.494 276.168 357.378 275.692L356.916 273.795C356.8 273.319 357.092 272.839 357.568 272.723L361.534 271.757C362.01 271.641 362.49 271.933 362.606 272.409L363.068 274.306C363.184 274.782 362.892 275.262 362.416 275.378Z" stroke="white" stroke-width="0.5982" stroke-miterlimit="10"/>
<path d="M349.291 242.309L348.022 249.579L357.035 247.137C357.035 247.137 356.735 240.721 353.298 240.528L349.291 242.309Z" fill="#E4897B"/>
<path d="M350.867 254.917L358.224 252.552L357.035 247.136L348.022 249.578L350.867 254.917Z" fill="#E4897B"/>
<path d="M348.726 239.387L348.957 242.65L354.926 241.419L354.457 238.355L348.726 239.387Z" fill="#EF7F1A"/>
<path opacity="0.7" d="M348.726 239.387L348.957 242.65L354.926 241.419L354.457 238.355L348.726 239.387Z" fill="white"/>
<path d="M317.317 187.326C322.625 189.428 327.608 191.749 332.605 194.491C335.088 195.869 337.556 197.335 339.987 199.041C341.205 199.893 342.419 200.813 343.632 201.849C344.839 202.91 346.047 204.046 347.247 205.694C347.547 206.138 347.837 206.525 348.125 207.087C348.262 207.344 348.415 207.629 348.527 207.868L348.756 208.44L349.207 209.585L349.569 210.658C349.819 211.377 350.019 212.08 350.21 212.768C350.412 213.465 350.602 214.155 350.771 214.837C351.496 217.574 352.057 220.288 352.599 222.996C353.65 228.423 354.458 233.835 355.026 239.331L348.601 240.526C348.601 240.526 346.19 230.223 344.473 225.143C343.632 222.598 342.738 220.075 341.844 217.626C341.622 217.006 341.39 216.407 341.152 215.818C340.922 215.216 340.678 214.634 340.437 214.087L340.081 213.253L339.721 212.529L339.544 212.167C339.501 212.104 339.479 212.097 339.452 212.057C339.435 212.009 339.292 211.868 339.205 211.755C338.761 211.235 337.947 210.524 337.06 209.863C336.167 209.185 335.177 208.511 334.13 207.864C332.026 206.577 329.776 205.336 327.462 204.165C322.853 201.828 317.954 199.599 313.214 197.567L317.317 187.326Z" fill="#263238"/>
<path d="M376.244 190.135C402.441 190.135 423.678 168.898 423.678 142.701C423.678 116.504 402.441 95.2671 376.244 95.2671C350.047 95.2671 328.81 116.504 328.81 142.701C328.81 168.898 350.047 190.135 376.244 190.135Z" fill="#EF7F1A"/>
<path opacity="0.7" d="M376.244 190.135C402.441 190.135 423.678 168.898 423.678 142.701C423.678 116.504 402.441 95.2671 376.244 95.2671C350.047 95.2671 328.81 116.504 328.81 142.701C328.81 168.898 350.047 190.135 376.244 190.135Z" fill="white"/>
<path d="M327.489 165.756C330.255 165.756 332.498 163.513 332.498 160.747C332.498 157.981 330.255 155.738 327.489 155.738C324.723 155.738 322.48 157.981 322.48 160.747C322.48 163.513 324.723 165.756 327.489 165.756Z" fill="#EF7F1A"/>
<path opacity="0.7" d="M327.489 165.756C330.255 165.756 332.498 163.513 332.498 160.747C332.498 157.981 330.255 155.738 327.489 155.738C324.723 155.738 322.48 157.981 322.48 160.747C322.48 163.513 324.723 165.756 327.489 165.756Z" fill="white"/>
<path d="M319.634 164.189C319.525 165.772 318.154 166.966 316.572 166.858C314.989 166.749 313.795 165.378 313.903 163.796C314.012 162.213 315.383 161.018 316.965 161.127C318.548 161.236 319.743 162.607 319.634 164.189Z" fill="#EF7F1A"/>
<path opacity="0.7" d="M319.634 164.189C319.525 165.772 318.154 166.966 316.572 166.858C314.989 166.749 313.795 165.378 313.903 163.796C314.012 162.213 315.383 161.018 316.965 161.127C318.548 161.236 319.743 162.607 319.634 164.189Z" fill="white"/>
<path d="M310.997 163.421C310.943 164.212 310.257 164.81 309.466 164.755C308.675 164.7 308.077 164.015 308.132 163.224C308.186 162.433 308.872 161.835 309.663 161.89C310.454 161.945 311.052 162.63 310.997 163.421Z" fill="#EF7F1A"/>
<path opacity="0.7" d="M310.997 163.421C310.943 164.212 310.257 164.81 309.466 164.755C308.675 164.7 308.077 164.015 308.132 163.224C308.186 162.433 308.872 161.835 309.663 161.89C310.454 161.945 311.052 162.63 310.997 163.421Z" fill="white"/>
<path d="M382.883 165.297C392.484 161.863 396.807 149.406 392.539 137.474C388.271 125.542 377.028 118.653 367.427 122.087C357.826 125.521 353.503 137.978 357.771 149.91C362.039 161.842 373.282 168.731 382.883 165.297Z" fill="#EF7F1A"/>
<path d="M382.759 160.638C390.508 157.866 393.997 147.812 390.552 138.181C387.107 128.55 378.033 122.989 370.284 125.761C362.535 128.533 359.046 138.587 362.49 148.218C365.935 157.849 375.01 163.409 382.759 160.638Z" fill="white"/>
<path d="M388.928 138.772C391.687 146.485 388.892 154.537 382.686 156.757C376.48 158.977 369.213 154.523 366.454 146.81C363.695 139.097 366.49 131.045 372.696 128.825C378.902 126.606 386.17 131.059 388.928 138.772Z" fill="#EF7F1A"/>
<path d="M386.818 139.527C388.937 145.45 386.943 151.58 382.364 153.217C377.786 154.854 372.357 151.38 370.239 145.457C368.12 139.534 370.114 133.404 374.693 131.767C379.27 130.13 384.699 133.604 386.818 139.527Z" fill="white"/>
<path d="M385.257 140.449C386.768 144.673 385.463 149.002 382.342 150.118C379.221 151.234 375.467 148.715 373.956 144.491C372.445 140.267 373.75 135.938 376.871 134.822C379.991 133.706 383.746 136.225 385.257 140.449Z" fill="#EF7F1A"/>
<path d="M384.165 140.839C385.256 143.89 384.427 146.976 382.313 147.732C380.199 148.488 377.601 146.628 376.51 143.577C375.419 140.527 376.248 137.441 378.362 136.684C380.475 135.929 383.074 137.789 384.165 140.839Z" fill="white"/>
<path d="M409.352 127.056L403.671 129.088L402.578 134.254L406.699 137.555L412.38 135.523L408.165 132.256L409.352 127.056Z" fill="#EF7F1A"/>
<path d="M381.221 141.892L409.034 131.945" stroke="#263238" stroke-width="2" stroke-miterlimit="10" stroke-linecap="round" stroke-linejoin="round"/>
</svg>
